<mxfile host="app.diagrams.net" modified="2022-03-12T19:42:10.134Z" agent="5.0 (Windows)" etag="QavBfDR-gy489p4tzB73" version="17.1.2" type="github">
  <diagram id="cHOvcO2SzUBjgOlQo1bt" name="Page-1">
    <mxGraphModel dx="3367" dy="2356" grid="1" gridSize="10" guides="1" tooltips="1" connect="1" arrows="1" fold="1" page="1" pageScale="1" pageWidth="850" pageHeight="1100" math="0" shadow="0">
      <root>
        <mxCell id="0" />
        <mxCell id="1" parent="0" />
        <mxCell id="bvwN4WITmdQyCTtZIi4v-202" value="" style="endArrow=none;html=1;rounded=0;fontFamily=Lucida Console;fontSize=20;fontColor=#FF8000;entryX=0;entryY=0.5;entryDx=0;entryDy=0;exitX=1;exitY=0.5;exitDx=0;exitDy=0;strokeWidth=2;" parent="1" edge="1">
          <mxGeometry width="50" height="50" relative="1" as="geometry">
            <mxPoint x="995" y="926.5" as="sourcePoint" />
            <mxPoint x="1035" y="926.5" as="targetPoint" />
          </mxGeometry>
        </mxCell>
        <mxCell id="bvwN4WITmdQyCTtZIi4v-57" value="" style="ellipse;whiteSpace=wrap;html=1;fontFamily=Lucida Console;fontSize=20;strokeColor=#6E67A1;strokeWidth=2;fillColor=#FFFFFF;" parent="1" vertex="1">
          <mxGeometry x="165" y="275" width="100" height="40" as="geometry" />
        </mxCell>
        <mxCell id="bvwN4WITmdQyCTtZIi4v-69" value="" style="ellipse;whiteSpace=wrap;html=1;fontFamily=Lucida Console;fontSize=20;strokeColor=#6E67A1;strokeWidth=2;fillColor=#d0cee2;" parent="1" vertex="1">
          <mxGeometry x="170" y="278" width="90" height="34" as="geometry" />
        </mxCell>
        <mxCell id="bvwN4WITmdQyCTtZIi4v-3" value="" style="group;fillColor=#b1ddf0;strokeColor=#10739e;" parent="1" vertex="1" connectable="0">
          <mxGeometry x="339" y="43" width="200" height="40" as="geometry" />
        </mxCell>
        <mxCell id="bvwN4WITmdQyCTtZIi4v-1" value="" style="rounded=0;whiteSpace=wrap;html=1;fillColor=#dae8fc;strokeColor=#6c8ebf;strokeWidth=2;" parent="bvwN4WITmdQyCTtZIi4v-3" vertex="1">
          <mxGeometry width="200" height="40" as="geometry" />
        </mxCell>
        <mxCell id="bvwN4WITmdQyCTtZIi4v-2" value="&lt;font style=&quot;font-size: 20px&quot; face=&quot;Lucida Console&quot; color=&quot;#6C8EBF&quot;&gt;STATION&lt;/font&gt;" style="text;html=1;strokeColor=none;fillColor=none;align=center;verticalAlign=middle;whiteSpace=wrap;rounded=0;" parent="bvwN4WITmdQyCTtZIi4v-3" vertex="1">
          <mxGeometry x="70" y="5" width="60" height="30" as="geometry" />
        </mxCell>
        <mxCell id="bvwN4WITmdQyCTtZIi4v-6" value="" style="group" parent="1" vertex="1" connectable="0">
          <mxGeometry x="825" y="44" width="200" height="40" as="geometry" />
        </mxCell>
        <mxCell id="bvwN4WITmdQyCTtZIi4v-4" value="" style="rounded=0;whiteSpace=wrap;html=1;fillColor=#dae8fc;strokeColor=#6c8ebf;strokeWidth=2;" parent="bvwN4WITmdQyCTtZIi4v-6" vertex="1">
          <mxGeometry width="200" height="40" as="geometry" />
        </mxCell>
        <mxCell id="bvwN4WITmdQyCTtZIi4v-5" value="&lt;font style=&quot;font-size: 20px&quot; face=&quot;Lucida Console&quot; color=&quot;#6C8EBF&quot;&gt;DISTANCE&lt;/font&gt;" style="text;html=1;strokeColor=none;fillColor=none;align=center;verticalAlign=middle;whiteSpace=wrap;rounded=0;" parent="bvwN4WITmdQyCTtZIi4v-6" vertex="1">
          <mxGeometry x="70" y="5" width="60" height="30" as="geometry" />
        </mxCell>
        <mxCell id="bvwN4WITmdQyCTtZIi4v-7" value="" style="group" parent="1" vertex="1" connectable="0">
          <mxGeometry x="340" y="280" width="200" height="40" as="geometry" />
        </mxCell>
        <mxCell id="bvwN4WITmdQyCTtZIi4v-8" value="" style="rounded=0;whiteSpace=wrap;html=1;fillColor=#dae8fc;strokeColor=#6c8ebf;strokeWidth=2;" parent="bvwN4WITmdQyCTtZIi4v-7" vertex="1">
          <mxGeometry width="200" height="40" as="geometry" />
        </mxCell>
        <mxCell id="bvwN4WITmdQyCTtZIi4v-9" value="&lt;font style=&quot;font-size: 20px&quot; face=&quot;Lucida Console&quot; color=&quot;#6C8EBF&quot;&gt;RAILLINE&lt;/font&gt;" style="text;html=1;strokeColor=none;fillColor=none;align=center;verticalAlign=middle;whiteSpace=wrap;rounded=0;" parent="bvwN4WITmdQyCTtZIi4v-7" vertex="1">
          <mxGeometry x="70" y="5" width="60" height="30" as="geometry" />
        </mxCell>
        <mxCell id="bvwN4WITmdQyCTtZIi4v-14" value="" style="group" parent="1" vertex="1" connectable="0">
          <mxGeometry x="1070" y="563" width="200" height="40" as="geometry" />
        </mxCell>
        <mxCell id="bvwN4WITmdQyCTtZIi4v-15" value="" style="rounded=0;whiteSpace=wrap;html=1;fillColor=#dae8fc;strokeColor=#6c8ebf;strokeWidth=2;" parent="bvwN4WITmdQyCTtZIi4v-14" vertex="1">
          <mxGeometry width="200" height="40" as="geometry" />
        </mxCell>
        <mxCell id="bvwN4WITmdQyCTtZIi4v-16" value="&lt;font style=&quot;font-size: 20px&quot; face=&quot;Lucida Console&quot; color=&quot;#6C8EBF&quot;&gt;SCHEDULE&lt;/font&gt;" style="text;html=1;strokeColor=none;fillColor=none;align=center;verticalAlign=middle;whiteSpace=wrap;rounded=0;" parent="bvwN4WITmdQyCTtZIi4v-14" vertex="1">
          <mxGeometry x="70" y="5" width="60" height="30" as="geometry" />
        </mxCell>
        <mxCell id="bvwN4WITmdQyCTtZIi4v-17" value="" style="group" parent="1" vertex="1" connectable="0">
          <mxGeometry x="820" y="280" width="200" height="40" as="geometry" />
        </mxCell>
        <mxCell id="bvwN4WITmdQyCTtZIi4v-18" value="" style="rounded=0;whiteSpace=wrap;html=1;fillColor=#dae8fc;strokeColor=#6c8ebf;strokeWidth=2;" parent="bvwN4WITmdQyCTtZIi4v-17" vertex="1">
          <mxGeometry width="200" height="40" as="geometry" />
        </mxCell>
        <mxCell id="bvwN4WITmdQyCTtZIi4v-19" value="&lt;font style=&quot;font-size: 20px&quot; face=&quot;Lucida Console&quot; color=&quot;#6C8EBF&quot;&gt;TRAIN&lt;/font&gt;" style="text;html=1;strokeColor=none;fillColor=none;align=center;verticalAlign=middle;whiteSpace=wrap;rounded=0;" parent="bvwN4WITmdQyCTtZIi4v-17" vertex="1">
          <mxGeometry x="70" y="5" width="60" height="30" as="geometry" />
        </mxCell>
        <mxCell id="bvwN4WITmdQyCTtZIi4v-20" value="" style="rhombus;whiteSpace=wrap;html=1;fontFamily=Lucida Console;fontSize=20;strokeWidth=2;fillColor=#fad7ac;strokeColor=#FF8000;" parent="1" vertex="1">
          <mxGeometry x="600" y="23" width="160" height="80" as="geometry" />
        </mxCell>
        <mxCell id="bvwN4WITmdQyCTtZIi4v-22" value="&lt;font color=&quot;#FF8000&quot;&gt;has&lt;/font&gt;" style="text;html=1;strokeColor=none;fillColor=none;align=center;verticalAlign=middle;whiteSpace=wrap;rounded=0;fontFamily=Lucida Console;fontSize=20;fontColor=#6C8EBF;" parent="1" vertex="1">
          <mxGeometry x="650" y="48" width="60" height="30" as="geometry" />
        </mxCell>
        <mxCell id="bvwN4WITmdQyCTtZIi4v-25" value="" style="rhombus;whiteSpace=wrap;html=1;fontFamily=Lucida Console;fontSize=20;strokeWidth=2;fillColor=#fad7ac;strokeColor=#FF8000;" parent="1" vertex="1">
          <mxGeometry x="360" y="400" width="160" height="80" as="geometry" />
        </mxCell>
        <mxCell id="bvwN4WITmdQyCTtZIi4v-27" value="" style="endArrow=none;html=1;rounded=0;fontFamily=Lucida Console;fontSize=20;fontColor=#FF8000;entryX=0;entryY=0.5;entryDx=0;entryDy=0;exitX=1;exitY=0.5;exitDx=0;exitDy=0;strokeWidth=2;" parent="1" source="bvwN4WITmdQyCTtZIi4v-1" target="bvwN4WITmdQyCTtZIi4v-20" edge="1">
          <mxGeometry width="50" height="50" relative="1" as="geometry">
            <mxPoint x="300" y="250" as="sourcePoint" />
            <mxPoint x="350" y="200" as="targetPoint" />
          </mxGeometry>
        </mxCell>
        <mxCell id="bvwN4WITmdQyCTtZIi4v-28" value="" style="endArrow=none;html=1;rounded=0;fontFamily=Lucida Console;fontSize=20;fontColor=#FF8000;exitX=0.5;exitY=0;exitDx=0;exitDy=0;strokeColor=#000000;entryX=0.5;entryY=1;entryDx=0;entryDy=0;strokeWidth=2;" parent="1" source="bvwN4WITmdQyCTtZIi4v-8" target="vStZy5G3cpGjvrvQ28vG-13" edge="1">
          <mxGeometry width="50" height="50" relative="1" as="geometry">
            <mxPoint x="400" y="550" as="sourcePoint" />
            <mxPoint x="440" y="240" as="targetPoint" />
          </mxGeometry>
        </mxCell>
        <mxCell id="bvwN4WITmdQyCTtZIi4v-32" value="" style="endArrow=none;html=1;rounded=0;fontFamily=Lucida Console;fontSize=20;fontColor=#FF8000;entryX=0;entryY=0.5;entryDx=0;entryDy=0;exitX=1;exitY=0.5;exitDx=0;exitDy=0;strokeWidth=2;" parent="1" source="bvwN4WITmdQyCTtZIi4v-20" edge="1">
          <mxGeometry width="50" height="50" relative="1" as="geometry">
            <mxPoint x="785" y="63.83000000000001" as="sourcePoint" />
            <mxPoint x="825" y="63.83000000000001" as="targetPoint" />
          </mxGeometry>
        </mxCell>
        <mxCell id="bvwN4WITmdQyCTtZIi4v-34" value="" style="endArrow=none;html=1;rounded=0;fontFamily=Lucida Console;fontSize=20;fontColor=#FF8000;entryX=1;entryY=0.5;entryDx=0;entryDy=0;strokeColor=#000000;strokeWidth=2;exitX=0;exitY=0.5;exitDx=0;exitDy=0;" parent="1" source="bvwN4WITmdQyCTtZIi4v-141" target="vStZy5G3cpGjvrvQ28vG-57" edge="1">
          <mxGeometry width="50" height="50" relative="1" as="geometry">
            <mxPoint x="820" y="300" as="sourcePoint" />
            <mxPoint x="774" y="361.75" as="targetPoint" />
          </mxGeometry>
        </mxCell>
        <mxCell id="bvwN4WITmdQyCTtZIi4v-37" value="" style="endArrow=none;html=1;rounded=0;fontFamily=Lucida Console;fontSize=20;fontColor=#FF8000;entryX=0.5;entryY=1;entryDx=0;entryDy=0;strokeColor=#000000;strokeWidth=2;" parent="1" edge="1">
          <mxGeometry width="50" height="50" relative="1" as="geometry">
            <mxPoint x="440" y="400" as="sourcePoint" />
            <mxPoint x="439.50000000000006" y="319" as="targetPoint" />
          </mxGeometry>
        </mxCell>
        <mxCell id="bvwN4WITmdQyCTtZIi4v-41" value="" style="ellipse;whiteSpace=wrap;html=1;fontFamily=Lucida Console;fontSize=20;strokeColor=#6E67A1;strokeWidth=2;fillColor=#d0cee2;" parent="1" vertex="1">
          <mxGeometry x="299" y="-21" width="100" height="40" as="geometry" />
        </mxCell>
        <mxCell id="bvwN4WITmdQyCTtZIi4v-42" value="&lt;b&gt;&lt;font style=&quot;font-size: 12px&quot; color=&quot;#6E67A1&quot;&gt;station_no&lt;/font&gt;&lt;/b&gt;" style="text;html=1;strokeColor=none;fillColor=none;align=center;verticalAlign=middle;whiteSpace=wrap;rounded=0;fontFamily=Lucida Console;fontSize=20;fontColor=#FF8000;" parent="1" vertex="1">
          <mxGeometry x="319" y="-12" width="60" height="12" as="geometry" />
        </mxCell>
        <mxCell id="bvwN4WITmdQyCTtZIi4v-43" value="" style="ellipse;whiteSpace=wrap;html=1;fontFamily=Lucida Console;fontSize=20;strokeColor=#6E67A1;strokeWidth=2;fillColor=#d0cee2;" parent="1" vertex="1">
          <mxGeometry x="475" y="-24" width="100" height="40" as="geometry" />
        </mxCell>
        <mxCell id="bvwN4WITmdQyCTtZIi4v-44" value="&lt;font style=&quot;font-size: 12px&quot; color=&quot;#6E67A1&quot;&gt;address&lt;/font&gt;" style="text;html=1;strokeColor=none;fillColor=none;align=center;verticalAlign=middle;whiteSpace=wrap;rounded=0;fontFamily=Lucida Console;fontSize=20;fontColor=#FF8000;" parent="1" vertex="1">
          <mxGeometry x="495" y="-12" width="60" height="12" as="geometry" />
        </mxCell>
        <mxCell id="bvwN4WITmdQyCTtZIi4v-45" value="" style="ellipse;whiteSpace=wrap;html=1;fontFamily=Lucida Console;fontSize=20;strokeColor=#6E67A1;strokeWidth=2;fillColor=#d0cee2;" parent="1" vertex="1">
          <mxGeometry x="389" y="-61" width="100" height="40" as="geometry" />
        </mxCell>
        <mxCell id="bvwN4WITmdQyCTtZIi4v-46" value="&lt;font style=&quot;font-size: 12px&quot; color=&quot;#6E67A1&quot;&gt;hours&lt;/font&gt;" style="text;html=1;strokeColor=none;fillColor=none;align=center;verticalAlign=middle;whiteSpace=wrap;rounded=0;fontFamily=Lucida Console;fontSize=20;fontColor=#FF8000;" parent="1" vertex="1">
          <mxGeometry x="409" y="-47" width="60" height="12" as="geometry" />
        </mxCell>
        <mxCell id="bvwN4WITmdQyCTtZIi4v-47" value="" style="ellipse;whiteSpace=wrap;html=1;fontFamily=Lucida Console;fontSize=20;strokeColor=#6E67A1;strokeWidth=2;fillColor=#d0cee2;" parent="1" vertex="1">
          <mxGeometry x="805" y="-36" width="120" height="40" as="geometry" />
        </mxCell>
        <mxCell id="bvwN4WITmdQyCTtZIi4v-48" value="&lt;b&gt;&lt;font style=&quot;font-size: 12px&quot; color=&quot;#6E67A1&quot;&gt;stationA-stationB&lt;/font&gt;&lt;/b&gt;" style="text;html=1;strokeColor=none;fillColor=none;align=center;verticalAlign=middle;whiteSpace=wrap;rounded=0;fontFamily=Lucida Console;fontSize=20;fontColor=#FF8000;" parent="1" vertex="1">
          <mxGeometry x="815" y="-24" width="100" height="12" as="geometry" />
        </mxCell>
        <mxCell id="bvwN4WITmdQyCTtZIi4v-49" value="" style="ellipse;whiteSpace=wrap;html=1;fontFamily=Lucida Console;fontSize=20;strokeColor=#6E67A1;strokeWidth=2;fillColor=#d0cee2;" parent="1" vertex="1">
          <mxGeometry x="935" y="-36" width="80" height="40" as="geometry" />
        </mxCell>
        <mxCell id="bvwN4WITmdQyCTtZIi4v-50" value="&lt;font style=&quot;font-size: 12px&quot; color=&quot;#6E67A1&quot;&gt;miles&lt;/font&gt;" style="text;html=1;strokeColor=none;fillColor=none;align=center;verticalAlign=middle;whiteSpace=wrap;rounded=0;fontFamily=Lucida Console;fontSize=20;fontColor=#FF8000;" parent="1" vertex="1">
          <mxGeometry x="945" y="-24" width="60" height="12" as="geometry" />
        </mxCell>
        <mxCell id="bvwN4WITmdQyCTtZIi4v-51" value="" style="ellipse;whiteSpace=wrap;html=1;fontFamily=Lucida Console;fontSize=20;strokeColor=#6E67A1;strokeWidth=2;fillColor=#d0cee2;" parent="1" vertex="1">
          <mxGeometry x="760" y="-92" width="100" height="40" as="geometry" />
        </mxCell>
        <mxCell id="bvwN4WITmdQyCTtZIi4v-52" value="&lt;font style=&quot;font-size: 12px&quot; color=&quot;#6E67A1&quot;&gt;stationA&lt;/font&gt;" style="text;html=1;strokeColor=none;fillColor=none;align=center;verticalAlign=middle;whiteSpace=wrap;rounded=0;fontFamily=Lucida Console;fontSize=20;fontColor=#FF8000;" parent="1" vertex="1">
          <mxGeometry x="780" y="-80" width="60" height="12" as="geometry" />
        </mxCell>
        <mxCell id="bvwN4WITmdQyCTtZIi4v-53" value="" style="ellipse;whiteSpace=wrap;html=1;fontFamily=Lucida Console;fontSize=20;strokeColor=#6E67A1;strokeWidth=2;fillColor=#d0cee2;" parent="1" vertex="1">
          <mxGeometry x="870" y="-92" width="100" height="40" as="geometry" />
        </mxCell>
        <mxCell id="bvwN4WITmdQyCTtZIi4v-54" value="&lt;font style=&quot;font-size: 12px&quot; color=&quot;#6E67A1&quot;&gt;station_B&lt;/font&gt;" style="text;html=1;strokeColor=none;fillColor=none;align=center;verticalAlign=middle;whiteSpace=wrap;rounded=0;fontFamily=Lucida Console;fontSize=20;fontColor=#FF8000;" parent="1" vertex="1">
          <mxGeometry x="890" y="-80" width="60" height="12" as="geometry" />
        </mxCell>
        <mxCell id="bvwN4WITmdQyCTtZIi4v-55" value="" style="ellipse;whiteSpace=wrap;html=1;fontFamily=Lucida Console;fontSize=20;strokeColor=#6E67A1;strokeWidth=2;fillColor=#d0cee2;" parent="1" vertex="1">
          <mxGeometry x="165" y="225" width="100" height="40" as="geometry" />
        </mxCell>
        <mxCell id="bvwN4WITmdQyCTtZIi4v-56" value="&lt;b&gt;&lt;font style=&quot;font-size: 12px&quot; color=&quot;#6E67A1&quot;&gt;rail_ID&lt;/font&gt;&lt;/b&gt;" style="text;html=1;strokeColor=none;fillColor=none;align=center;verticalAlign=middle;whiteSpace=wrap;rounded=0;fontFamily=Lucida Console;fontSize=20;fontColor=#FF8000;" parent="1" vertex="1">
          <mxGeometry x="185" y="237" width="60" height="12" as="geometry" />
        </mxCell>
        <mxCell id="bvwN4WITmdQyCTtZIi4v-58" value="&lt;div&gt;&lt;font style=&quot;font-size: 12px&quot; color=&quot;#6E67A1&quot;&gt;station_dis&lt;/font&gt;&lt;/div&gt;" style="text;html=1;strokeColor=none;fillColor=none;align=center;verticalAlign=middle;whiteSpace=wrap;rounded=0;fontFamily=Lucida Console;fontSize=20;fontColor=#FF8000;" parent="1" vertex="1">
          <mxGeometry x="185" y="287" width="60" height="12" as="geometry" />
        </mxCell>
        <mxCell id="bvwN4WITmdQyCTtZIi4v-61" value="" style="ellipse;whiteSpace=wrap;html=1;fontFamily=Lucida Console;fontSize=20;strokeColor=#6E67A1;strokeWidth=2;fillColor=#d0cee2;" parent="1" vertex="1">
          <mxGeometry x="165" y="325" width="100" height="40" as="geometry" />
        </mxCell>
        <mxCell id="bvwN4WITmdQyCTtZIi4v-62" value="&lt;font style=&quot;font-size: 12px&quot; color=&quot;#6E67A1&quot;&gt;speed_limit&lt;/font&gt;" style="text;html=1;strokeColor=none;fillColor=none;align=center;verticalAlign=middle;whiteSpace=wrap;rounded=0;fontFamily=Lucida Console;fontSize=20;fontColor=#FF8000;" parent="1" vertex="1">
          <mxGeometry x="185" y="337" width="60" height="12" as="geometry" />
        </mxCell>
        <mxCell id="bvwN4WITmdQyCTtZIi4v-63" value="" style="ellipse;whiteSpace=wrap;html=1;fontFamily=Lucida Console;fontSize=20;strokeColor=#6E67A1;strokeWidth=2;fillColor=#d0cee2;" parent="1" vertex="1">
          <mxGeometry x="20" y="220" width="100" height="40" as="geometry" />
        </mxCell>
        <mxCell id="bvwN4WITmdQyCTtZIi4v-64" value="&lt;font style=&quot;font-size: 12px&quot; color=&quot;#6E67A1&quot;&gt;station_A&lt;/font&gt;" style="text;html=1;strokeColor=none;fillColor=none;align=center;verticalAlign=middle;whiteSpace=wrap;rounded=0;fontFamily=Lucida Console;fontSize=20;fontColor=#FF8000;" parent="1" vertex="1">
          <mxGeometry x="40" y="232" width="60" height="12" as="geometry" />
        </mxCell>
        <mxCell id="bvwN4WITmdQyCTtZIi4v-65" value="" style="ellipse;whiteSpace=wrap;html=1;fontFamily=Lucida Console;fontSize=20;strokeColor=#6E67A1;strokeWidth=2;fillColor=#d0cee2;" parent="1" vertex="1">
          <mxGeometry x="20" y="270" width="100" height="40" as="geometry" />
        </mxCell>
        <mxCell id="bvwN4WITmdQyCTtZIi4v-66" value="&lt;font style=&quot;font-size: 12px&quot; color=&quot;#6E67A1&quot;&gt;station_B&lt;/font&gt;" style="text;html=1;strokeColor=none;fillColor=none;align=center;verticalAlign=middle;whiteSpace=wrap;rounded=0;fontFamily=Lucida Console;fontSize=20;fontColor=#FF8000;" parent="1" vertex="1">
          <mxGeometry x="40" y="282" width="60" height="12" as="geometry" />
        </mxCell>
        <mxCell id="bvwN4WITmdQyCTtZIi4v-67" value="" style="ellipse;whiteSpace=wrap;html=1;fontFamily=Lucida Console;fontSize=20;strokeColor=#6E67A1;strokeWidth=2;fillColor=#d0cee2;" parent="1" vertex="1">
          <mxGeometry x="20" y="320" width="100" height="40" as="geometry" />
        </mxCell>
        <mxCell id="bvwN4WITmdQyCTtZIi4v-68" value="&lt;font style=&quot;font-size: 12px&quot; color=&quot;#6E67A1&quot;&gt;distance&lt;/font&gt;" style="text;html=1;strokeColor=none;fillColor=none;align=center;verticalAlign=middle;whiteSpace=wrap;rounded=0;fontFamily=Lucida Console;fontSize=20;fontColor=#FF8000;" parent="1" vertex="1">
          <mxGeometry x="40" y="332" width="60" height="12" as="geometry" />
        </mxCell>
        <mxCell id="bvwN4WITmdQyCTtZIi4v-71" value="" style="ellipse;whiteSpace=wrap;html=1;fontFamily=Lucida Console;fontSize=20;strokeColor=#6E67A1;strokeWidth=2;fillColor=#FFFFFF;" parent="1" vertex="1">
          <mxGeometry x="170" y="530" width="100" height="40" as="geometry" />
        </mxCell>
        <mxCell id="bvwN4WITmdQyCTtZIi4v-72" value="" style="ellipse;whiteSpace=wrap;html=1;fontFamily=Lucida Console;fontSize=20;strokeColor=#6E67A1;strokeWidth=2;fillColor=#d0cee2;" parent="1" vertex="1">
          <mxGeometry x="175" y="533" width="90" height="34" as="geometry" />
        </mxCell>
        <mxCell id="bvwN4WITmdQyCTtZIi4v-73" value="&lt;div&gt;&lt;font style=&quot;font-size: 12px&quot; color=&quot;#6E67A1&quot;&gt;station_open&lt;/font&gt;&lt;/div&gt;" style="text;html=1;strokeColor=none;fillColor=none;align=center;verticalAlign=middle;whiteSpace=wrap;rounded=0;fontFamily=Lucida Console;fontSize=20;fontColor=#FF8000;" parent="1" vertex="1">
          <mxGeometry x="190" y="542" width="60" height="12" as="geometry" />
        </mxCell>
        <mxCell id="bvwN4WITmdQyCTtZIi4v-74" value="" style="ellipse;whiteSpace=wrap;html=1;fontFamily=Lucida Console;fontSize=20;strokeColor=#6E67A1;strokeWidth=2;fillColor=#d0cee2;" parent="1" vertex="1">
          <mxGeometry x="20" y="500" width="100" height="40" as="geometry" />
        </mxCell>
        <mxCell id="bvwN4WITmdQyCTtZIi4v-75" value="&lt;font style=&quot;font-size: 12px&quot; color=&quot;#6E67A1&quot;&gt;station&lt;/font&gt;" style="text;html=1;strokeColor=none;fillColor=none;align=center;verticalAlign=middle;whiteSpace=wrap;rounded=0;fontFamily=Lucida Console;fontSize=20;fontColor=#FF8000;" parent="1" vertex="1">
          <mxGeometry x="40" y="512" width="60" height="12" as="geometry" />
        </mxCell>
        <mxCell id="bvwN4WITmdQyCTtZIi4v-76" value="" style="ellipse;whiteSpace=wrap;html=1;fontFamily=Lucida Console;fontSize=20;strokeColor=#6E67A1;strokeWidth=2;fillColor=#d0cee2;" parent="1" vertex="1">
          <mxGeometry x="20" y="550" width="100" height="40" as="geometry" />
        </mxCell>
        <mxCell id="bvwN4WITmdQyCTtZIi4v-77" value="&lt;font style=&quot;font-size: 12px&quot; color=&quot;#6E67A1&quot;&gt;open&lt;/font&gt;" style="text;html=1;strokeColor=none;fillColor=none;align=center;verticalAlign=middle;whiteSpace=wrap;rounded=0;fontFamily=Lucida Console;fontSize=20;fontColor=#FF8000;" parent="1" vertex="1">
          <mxGeometry x="40" y="562" width="60" height="12" as="geometry" />
        </mxCell>
        <mxCell id="bvwN4WITmdQyCTtZIi4v-78" value="" style="ellipse;whiteSpace=wrap;html=1;fontFamily=Lucida Console;fontSize=20;strokeColor=#6E67A1;strokeWidth=2;fillColor=#d0cee2;" parent="1" vertex="1">
          <mxGeometry x="1120" y="472" width="100" height="40" as="geometry" />
        </mxCell>
        <mxCell id="bvwN4WITmdQyCTtZIi4v-79" value="&lt;b&gt;&lt;font style=&quot;font-size: 12px&quot; color=&quot;#6E67A1&quot;&gt;RDT&lt;/font&gt;&lt;/b&gt;" style="text;html=1;strokeColor=none;fillColor=none;align=center;verticalAlign=middle;whiteSpace=wrap;rounded=0;fontFamily=Lucida Console;fontSize=20;fontColor=#FF8000;" parent="1" vertex="1">
          <mxGeometry x="1140" y="484" width="60" height="12" as="geometry" />
        </mxCell>
        <mxCell id="bvwN4WITmdQyCTtZIi4v-80" value="" style="ellipse;whiteSpace=wrap;html=1;fontFamily=Lucida Console;fontSize=20;strokeColor=#6E67A1;strokeWidth=2;fillColor=#d0cee2;" parent="1" vertex="1">
          <mxGeometry x="1025" y="414" width="100" height="40" as="geometry" />
        </mxCell>
        <mxCell id="bvwN4WITmdQyCTtZIi4v-81" value="&lt;font style=&quot;font-size: 12px&quot; color=&quot;#6E67A1&quot;&gt;route&lt;/font&gt;" style="text;html=1;strokeColor=none;fillColor=none;align=center;verticalAlign=middle;whiteSpace=wrap;rounded=0;fontFamily=Lucida Console;fontSize=20;fontColor=#FF8000;" parent="1" vertex="1">
          <mxGeometry x="1045" y="426" width="60" height="12" as="geometry" />
        </mxCell>
        <mxCell id="bvwN4WITmdQyCTtZIi4v-82" value="" style="ellipse;whiteSpace=wrap;html=1;fontFamily=Lucida Console;fontSize=20;strokeColor=#6E67A1;strokeWidth=2;fillColor=#d0cee2;" parent="1" vertex="1">
          <mxGeometry x="1100" y="355" width="100" height="40" as="geometry" />
        </mxCell>
        <mxCell id="bvwN4WITmdQyCTtZIi4v-83" value="&lt;font style=&quot;font-size: 12px&quot; color=&quot;#6E67A1&quot;&gt;day&lt;/font&gt;" style="text;html=1;strokeColor=none;fillColor=none;align=center;verticalAlign=middle;whiteSpace=wrap;rounded=0;fontFamily=Lucida Console;fontSize=20;fontColor=#FF8000;" parent="1" vertex="1">
          <mxGeometry x="1120" y="367" width="60" height="12" as="geometry" />
        </mxCell>
        <mxCell id="bvwN4WITmdQyCTtZIi4v-84" value="" style="ellipse;whiteSpace=wrap;html=1;fontFamily=Lucida Console;fontSize=20;strokeColor=#6E67A1;strokeWidth=2;fillColor=#d0cee2;" parent="1" vertex="1">
          <mxGeometry x="1190" y="400" width="100" height="40" as="geometry" />
        </mxCell>
        <mxCell id="bvwN4WITmdQyCTtZIi4v-85" value="&lt;font style=&quot;font-size: 12px&quot; color=&quot;#6E67A1&quot;&gt;time&lt;/font&gt;" style="text;html=1;strokeColor=none;fillColor=none;align=center;verticalAlign=middle;whiteSpace=wrap;rounded=0;fontFamily=Lucida Console;fontSize=20;fontColor=#FF8000;" parent="1" vertex="1">
          <mxGeometry x="1210" y="412" width="60" height="12" as="geometry" />
        </mxCell>
        <mxCell id="bvwN4WITmdQyCTtZIi4v-86" value="" style="ellipse;whiteSpace=wrap;html=1;fontFamily=Lucida Console;fontSize=20;strokeColor=#6E67A1;strokeWidth=2;fillColor=#d0cee2;" parent="1" vertex="1">
          <mxGeometry x="765" y="185" width="100" height="40" as="geometry" />
        </mxCell>
        <mxCell id="bvwN4WITmdQyCTtZIi4v-87" value="&lt;b&gt;&lt;font style=&quot;font-size: 12px&quot; color=&quot;#6E67A1&quot;&gt;train_ID&lt;/font&gt;&lt;/b&gt;" style="text;html=1;strokeColor=none;fillColor=none;align=center;verticalAlign=middle;whiteSpace=wrap;rounded=0;fontFamily=Lucida Console;fontSize=20;fontColor=#FF8000;" parent="1" vertex="1">
          <mxGeometry x="785" y="197" width="60" height="12" as="geometry" />
        </mxCell>
        <mxCell id="bvwN4WITmdQyCTtZIi4v-88" value="" style="ellipse;whiteSpace=wrap;html=1;fontFamily=Lucida Console;fontSize=20;strokeColor=#6E67A1;strokeWidth=2;fillColor=#d0cee2;" parent="1" vertex="1">
          <mxGeometry x="905" y="169" width="100" height="40" as="geometry" />
        </mxCell>
        <mxCell id="bvwN4WITmdQyCTtZIi4v-89" value="&lt;font style=&quot;font-size: 12px&quot; color=&quot;#6E67A1&quot;&gt;seats_available&lt;/font&gt;" style="text;html=1;strokeColor=none;fillColor=none;align=center;verticalAlign=middle;whiteSpace=wrap;rounded=0;fontFamily=Lucida Console;fontSize=20;fontColor=#FF8000;" parent="1" vertex="1">
          <mxGeometry x="926" y="181" width="60" height="12" as="geometry" />
        </mxCell>
        <mxCell id="bvwN4WITmdQyCTtZIi4v-90" value="" style="ellipse;whiteSpace=wrap;html=1;fontFamily=Lucida Console;fontSize=20;strokeColor=#6E67A1;strokeWidth=2;fillColor=#d0cee2;" parent="1" vertex="1">
          <mxGeometry x="835" y="125" width="100" height="40" as="geometry" />
        </mxCell>
        <mxCell id="bvwN4WITmdQyCTtZIi4v-91" value="&lt;font style=&quot;font-size: 12px&quot; color=&quot;#6E67A1&quot;&gt;top_speed&lt;/font&gt;" style="text;html=1;strokeColor=none;fillColor=none;align=center;verticalAlign=middle;whiteSpace=wrap;rounded=0;fontFamily=Lucida Console;fontSize=20;fontColor=#FF8000;" parent="1" vertex="1">
          <mxGeometry x="855" y="137" width="60" height="12" as="geometry" />
        </mxCell>
        <mxCell id="bvwN4WITmdQyCTtZIi4v-92" value="" style="ellipse;whiteSpace=wrap;html=1;fontFamily=Lucida Console;fontSize=20;strokeColor=#6E67A1;strokeWidth=2;fillColor=#d0cee2;" parent="1" vertex="1">
          <mxGeometry x="1005" y="197" width="100" height="40" as="geometry" />
        </mxCell>
        <mxCell id="bvwN4WITmdQyCTtZIi4v-94" value="" style="ellipse;whiteSpace=wrap;html=1;fontFamily=Lucida Console;fontSize=20;strokeColor=#6E67A1;strokeWidth=2;fillColor=#d0cee2;" parent="1" vertex="1">
          <mxGeometry x="170" y="480" width="100" height="40" as="geometry" />
        </mxCell>
        <mxCell id="bvwN4WITmdQyCTtZIi4v-95" value="&lt;b&gt;&lt;font style=&quot;font-size: 12px&quot; color=&quot;#6E67A1&quot;&gt;route_ID&lt;/font&gt;&lt;/b&gt;" style="text;html=1;strokeColor=none;fillColor=none;align=center;verticalAlign=middle;whiteSpace=wrap;rounded=0;fontFamily=Lucida Console;fontSize=20;fontColor=#FF8000;" parent="1" vertex="1">
          <mxGeometry x="190" y="492" width="60" height="12" as="geometry" />
        </mxCell>
        <mxCell id="bvwN4WITmdQyCTtZIi4v-96" value="" style="endArrow=none;html=1;rounded=0;fontFamily=Lucida Console;fontSize=12;fontColor=#6E67A1;strokeColor=#6E67A1;entryX=0.5;entryY=1;entryDx=0;entryDy=0;exitX=0.5;exitY=0;exitDx=0;exitDy=0;strokeWidth=2;" parent="1" target="bvwN4WITmdQyCTtZIi4v-41" edge="1">
          <mxGeometry width="50" height="50" relative="1" as="geometry">
            <mxPoint x="439" y="43" as="sourcePoint" />
            <mxPoint x="379" y="358" as="targetPoint" />
          </mxGeometry>
        </mxCell>
        <mxCell id="bvwN4WITmdQyCTtZIi4v-97" value="" style="endArrow=none;html=1;rounded=0;fontFamily=Lucida Console;fontSize=12;fontColor=#6E67A1;strokeColor=#6E67A1;entryX=0.5;entryY=1;entryDx=0;entryDy=0;exitX=0.5;exitY=0;exitDx=0;exitDy=0;strokeWidth=2;" parent="1" target="bvwN4WITmdQyCTtZIi4v-45" edge="1">
          <mxGeometry width="50" height="50" relative="1" as="geometry">
            <mxPoint x="439" y="43" as="sourcePoint" />
            <mxPoint x="158.99999999999977" y="38" as="targetPoint" />
          </mxGeometry>
        </mxCell>
        <mxCell id="bvwN4WITmdQyCTtZIi4v-98" value="" style="endArrow=none;html=1;rounded=0;fontFamily=Lucida Console;fontSize=12;fontColor=#6E67A1;strokeColor=#6E67A1;entryX=0.5;entryY=1;entryDx=0;entryDy=0;strokeWidth=2;exitX=0.5;exitY=0;exitDx=0;exitDy=0;" parent="1" target="bvwN4WITmdQyCTtZIi4v-43" edge="1">
          <mxGeometry width="50" height="50" relative="1" as="geometry">
            <mxPoint x="439" y="43" as="sourcePoint" />
            <mxPoint x="168.99999999999977" y="48" as="targetPoint" />
          </mxGeometry>
        </mxCell>
        <mxCell id="bvwN4WITmdQyCTtZIi4v-99" value="" style="endArrow=none;html=1;rounded=0;fontFamily=Lucida Console;fontSize=12;fontColor=#6E67A1;strokeColor=#6E67A1;entryX=0.5;entryY=1;entryDx=0;entryDy=0;exitX=0.5;exitY=0;exitDx=0;exitDy=0;strokeWidth=2;" parent="1" source="bvwN4WITmdQyCTtZIi4v-4" target="bvwN4WITmdQyCTtZIi4v-47" edge="1">
          <mxGeometry width="50" height="50" relative="1" as="geometry">
            <mxPoint x="929.9999999999998" y="44" as="sourcePoint" />
            <mxPoint x="859.9999999999998" y="4" as="targetPoint" />
          </mxGeometry>
        </mxCell>
        <mxCell id="bvwN4WITmdQyCTtZIi4v-100" value="" style="endArrow=none;html=1;rounded=0;fontFamily=Lucida Console;fontSize=12;fontColor=#6E67A1;strokeColor=#6E67A1;entryX=0.5;entryY=1;entryDx=0;entryDy=0;exitX=0.5;exitY=0;exitDx=0;exitDy=0;strokeWidth=2;" parent="1" source="bvwN4WITmdQyCTtZIi4v-4" target="bvwN4WITmdQyCTtZIi4v-49" edge="1">
          <mxGeometry width="50" height="50" relative="1" as="geometry">
            <mxPoint x="524.9999999999998" y="84" as="sourcePoint" />
            <mxPoint x="454.9999999999998" y="44" as="targetPoint" />
          </mxGeometry>
        </mxCell>
        <mxCell id="bvwN4WITmdQyCTtZIi4v-101" value="" style="endArrow=none;html=1;rounded=0;fontFamily=Lucida Console;fontSize=12;fontColor=#6E67A1;strokeColor=#6E67A1;exitX=0.5;exitY=0;exitDx=0;exitDy=0;strokeWidth=2;entryX=0.5;entryY=1;entryDx=0;entryDy=0;" parent="1" source="bvwN4WITmdQyCTtZIi4v-47" target="bvwN4WITmdQyCTtZIi4v-51" edge="1">
          <mxGeometry width="50" height="50" relative="1" as="geometry">
            <mxPoint x="874.9999999999998" y="-4" as="sourcePoint" />
            <mxPoint x="815" y="-46" as="targetPoint" />
          </mxGeometry>
        </mxCell>
        <mxCell id="bvwN4WITmdQyCTtZIi4v-102" value="" style="endArrow=none;html=1;rounded=0;fontFamily=Lucida Console;fontSize=12;fontColor=#6E67A1;strokeColor=#6E67A1;entryX=0.5;entryY=1;entryDx=0;entryDy=0;exitX=0.5;exitY=0;exitDx=0;exitDy=0;strokeWidth=2;" parent="1" source="bvwN4WITmdQyCTtZIi4v-47" target="bvwN4WITmdQyCTtZIi4v-53" edge="1">
          <mxGeometry width="50" height="50" relative="1" as="geometry">
            <mxPoint x="544.9999999999998" y="104" as="sourcePoint" />
            <mxPoint x="474.9999999999998" y="64" as="targetPoint" />
          </mxGeometry>
        </mxCell>
        <mxCell id="bvwN4WITmdQyCTtZIi4v-104" value="" style="endArrow=none;html=1;rounded=0;fontFamily=Lucida Console;fontSize=12;fontColor=#6E67A1;strokeColor=#6E67A1;entryX=1;entryY=0.5;entryDx=0;entryDy=0;exitX=0;exitY=0.5;exitDx=0;exitDy=0;strokeWidth=2;" parent="1" source="bvwN4WITmdQyCTtZIi4v-8" target="bvwN4WITmdQyCTtZIi4v-57" edge="1">
          <mxGeometry width="50" height="50" relative="1" as="geometry">
            <mxPoint x="110" y="285" as="sourcePoint" />
            <mxPoint x="-200.00000000000023" y="185" as="targetPoint" />
          </mxGeometry>
        </mxCell>
        <mxCell id="bvwN4WITmdQyCTtZIi4v-105" value="" style="endArrow=none;html=1;rounded=0;fontFamily=Lucida Console;fontSize=12;fontColor=#6E67A1;strokeColor=#6E67A1;entryX=1;entryY=0.5;entryDx=0;entryDy=0;strokeWidth=2;exitX=0;exitY=0.5;exitDx=0;exitDy=0;" parent="1" source="bvwN4WITmdQyCTtZIi4v-8" target="bvwN4WITmdQyCTtZIi4v-61" edge="1">
          <mxGeometry width="50" height="50" relative="1" as="geometry">
            <mxPoint x="330" y="300" as="sourcePoint" />
            <mxPoint x="-190.00000000000023" y="195" as="targetPoint" />
          </mxGeometry>
        </mxCell>
        <mxCell id="bvwN4WITmdQyCTtZIi4v-106" value="" style="endArrow=none;html=1;rounded=0;fontFamily=Lucida Console;fontSize=12;fontColor=#6E67A1;strokeColor=#6E67A1;entryX=1;entryY=0.5;entryDx=0;entryDy=0;strokeWidth=2;exitX=0;exitY=0.5;exitDx=0;exitDy=0;" parent="1" source="bvwN4WITmdQyCTtZIi4v-69" target="bvwN4WITmdQyCTtZIi4v-63" edge="1">
          <mxGeometry width="50" height="50" relative="1" as="geometry">
            <mxPoint x="160" y="290" as="sourcePoint" />
            <mxPoint x="-450.0000000000002" y="200" as="targetPoint" />
          </mxGeometry>
        </mxCell>
        <mxCell id="bvwN4WITmdQyCTtZIi4v-107" value="" style="endArrow=none;html=1;rounded=0;fontFamily=Lucida Console;fontSize=12;fontColor=#6E67A1;strokeColor=#6E67A1;entryX=1;entryY=0.5;entryDx=0;entryDy=0;exitX=0;exitY=0.5;exitDx=0;exitDy=0;strokeWidth=2;" parent="1" source="bvwN4WITmdQyCTtZIi4v-69" target="bvwN4WITmdQyCTtZIi4v-65" edge="1">
          <mxGeometry width="50" height="50" relative="1" as="geometry">
            <mxPoint x="-5" y="290" as="sourcePoint" />
            <mxPoint x="-440.0000000000002" y="210" as="targetPoint" />
          </mxGeometry>
        </mxCell>
        <mxCell id="bvwN4WITmdQyCTtZIi4v-108" value="" style="endArrow=none;html=1;rounded=0;fontFamily=Lucida Console;fontSize=12;fontColor=#6E67A1;strokeColor=#6E67A1;entryX=1;entryY=0.5;entryDx=0;entryDy=0;exitX=0;exitY=0.5;exitDx=0;exitDy=0;strokeWidth=2;" parent="1" source="bvwN4WITmdQyCTtZIi4v-69" target="bvwN4WITmdQyCTtZIi4v-67" edge="1">
          <mxGeometry width="50" height="50" relative="1" as="geometry">
            <mxPoint x="-5" y="290" as="sourcePoint" />
            <mxPoint x="-430.0000000000002" y="220" as="targetPoint" />
          </mxGeometry>
        </mxCell>
        <mxCell id="bvwN4WITmdQyCTtZIi4v-109" value="" style="endArrow=none;html=1;rounded=0;fontFamily=Lucida Console;fontSize=12;fontColor=#6E67A1;strokeColor=#6E67A1;exitX=1;exitY=0.5;exitDx=0;exitDy=0;strokeWidth=2;entryX=0;entryY=0.5;entryDx=0;entryDy=0;" parent="1" source="bvwN4WITmdQyCTtZIi4v-94" target="bvwN4WITmdQyCTtZIi4v-12" edge="1">
          <mxGeometry width="50" height="50" relative="1" as="geometry">
            <mxPoint x="-710.0000000000002" y="567.75" as="sourcePoint" />
            <mxPoint x="340" y="590" as="targetPoint" />
          </mxGeometry>
        </mxCell>
        <mxCell id="bvwN4WITmdQyCTtZIi4v-110" value="" style="endArrow=none;html=1;rounded=0;fontFamily=Lucida Console;fontSize=12;fontColor=#6E67A1;strokeColor=#6E67A1;entryX=1;entryY=0.5;entryDx=0;entryDy=0;strokeWidth=2;exitX=0;exitY=0.5;exitDx=0;exitDy=0;" parent="1" source="bvwN4WITmdQyCTtZIi4v-12" target="bvwN4WITmdQyCTtZIi4v-72" edge="1">
          <mxGeometry width="50" height="50" relative="1" as="geometry">
            <mxPoint x="340" y="580" as="sourcePoint" />
            <mxPoint x="-770.0000000000002" y="537.75" as="targetPoint" />
          </mxGeometry>
        </mxCell>
        <mxCell id="bvwN4WITmdQyCTtZIi4v-111" value="" style="endArrow=none;html=1;rounded=0;fontFamily=Lucida Console;fontSize=12;fontColor=#6E67A1;strokeColor=#6E67A1;entryX=0;entryY=0.5;entryDx=0;entryDy=0;exitX=1;exitY=0.5;exitDx=0;exitDy=0;strokeWidth=2;" parent="1" source="bvwN4WITmdQyCTtZIi4v-74" target="bvwN4WITmdQyCTtZIi4v-72" edge="1">
          <mxGeometry width="50" height="50" relative="1" as="geometry">
            <mxPoint x="-330.0000000000002" y="317" as="sourcePoint" />
            <mxPoint x="-5" y="547" as="targetPoint" />
          </mxGeometry>
        </mxCell>
        <mxCell id="bvwN4WITmdQyCTtZIi4v-112" value="" style="endArrow=none;html=1;rounded=0;fontFamily=Lucida Console;fontSize=12;fontColor=#6E67A1;strokeColor=#6E67A1;exitX=1;exitY=0.5;exitDx=0;exitDy=0;strokeWidth=2;entryX=0;entryY=0.5;entryDx=0;entryDy=0;" parent="1" source="bvwN4WITmdQyCTtZIi4v-76" target="bvwN4WITmdQyCTtZIi4v-72" edge="1">
          <mxGeometry width="50" height="50" relative="1" as="geometry">
            <mxPoint x="-320.0000000000002" y="327" as="sourcePoint" />
            <mxPoint x="-5" y="547" as="targetPoint" />
          </mxGeometry>
        </mxCell>
        <mxCell id="bvwN4WITmdQyCTtZIi4v-113" value="" style="endArrow=none;html=1;rounded=0;fontFamily=Lucida Console;fontSize=12;fontColor=#6E67A1;strokeColor=#6E67A1;strokeWidth=2;exitX=0.5;exitY=1;exitDx=0;exitDy=0;entryX=0.5;entryY=0;entryDx=0;entryDy=0;" parent="1" source="bvwN4WITmdQyCTtZIi4v-78" target="bvwN4WITmdQyCTtZIi4v-15" edge="1">
          <mxGeometry width="50" height="50" relative="1" as="geometry">
            <mxPoint x="1240" y="510" as="sourcePoint" />
            <mxPoint x="1180" y="560" as="targetPoint" />
          </mxGeometry>
        </mxCell>
        <mxCell id="bvwN4WITmdQyCTtZIi4v-114" value="" style="endArrow=none;html=1;rounded=0;fontFamily=Lucida Console;fontSize=12;fontColor=#6E67A1;strokeColor=#6E67A1;entryX=0.5;entryY=0;entryDx=0;entryDy=0;exitX=0.5;exitY=1;exitDx=0;exitDy=0;strokeWidth=2;" parent="1" source="bvwN4WITmdQyCTtZIi4v-80" target="bvwN4WITmdQyCTtZIi4v-78" edge="1">
          <mxGeometry width="50" height="50" relative="1" as="geometry">
            <mxPoint x="1339.9999999999998" as="sourcePoint" />
            <mxPoint x="1269.9999999999998" y="-40" as="targetPoint" />
          </mxGeometry>
        </mxCell>
        <mxCell id="bvwN4WITmdQyCTtZIi4v-115" value="" style="endArrow=none;html=1;rounded=0;fontFamily=Lucida Console;fontSize=12;fontColor=#6E67A1;strokeColor=#6E67A1;strokeWidth=2;entryX=0.5;entryY=0;entryDx=0;entryDy=0;exitX=0.5;exitY=1;exitDx=0;exitDy=0;" parent="1" source="bvwN4WITmdQyCTtZIi4v-82" target="bvwN4WITmdQyCTtZIi4v-78" edge="1">
          <mxGeometry width="50" height="50" relative="1" as="geometry">
            <mxPoint x="1180" y="410" as="sourcePoint" />
            <mxPoint x="1170" y="445" as="targetPoint" />
          </mxGeometry>
        </mxCell>
        <mxCell id="bvwN4WITmdQyCTtZIi4v-116" value="" style="endArrow=none;html=1;rounded=0;fontFamily=Lucida Console;fontSize=12;fontColor=#6E67A1;strokeColor=#6E67A1;entryX=0.5;entryY=0;entryDx=0;entryDy=0;exitX=0.5;exitY=1;exitDx=0;exitDy=0;strokeWidth=2;" parent="1" source="bvwN4WITmdQyCTtZIi4v-84" target="bvwN4WITmdQyCTtZIi4v-78" edge="1">
          <mxGeometry width="50" height="50" relative="1" as="geometry">
            <mxPoint x="1359.9999999999998" y="20" as="sourcePoint" />
            <mxPoint x="1289.9999999999998" y="-20" as="targetPoint" />
          </mxGeometry>
        </mxCell>
        <mxCell id="bvwN4WITmdQyCTtZIi4v-117" value="" style="endArrow=none;html=1;rounded=0;fontFamily=Lucida Console;fontSize=12;fontColor=#6E67A1;strokeColor=#6E67A1;entryX=0.5;entryY=1;entryDx=0;entryDy=0;strokeWidth=2;exitX=0.5;exitY=0;exitDx=0;exitDy=0;" parent="1" source="bvwN4WITmdQyCTtZIi4v-18" target="bvwN4WITmdQyCTtZIi4v-86" edge="1">
          <mxGeometry width="50" height="50" relative="1" as="geometry">
            <mxPoint x="1020" y="300" as="sourcePoint" />
            <mxPoint x="619.9999999999998" y="-30" as="targetPoint" />
          </mxGeometry>
        </mxCell>
        <mxCell id="bvwN4WITmdQyCTtZIi4v-118" value="" style="endArrow=none;html=1;rounded=0;fontFamily=Lucida Console;fontSize=12;fontColor=#6E67A1;strokeColor=#6E67A1;entryX=0.5;entryY=1;entryDx=0;entryDy=0;strokeWidth=2;" parent="1" target="bvwN4WITmdQyCTtZIi4v-88" edge="1">
          <mxGeometry width="50" height="50" relative="1" as="geometry">
            <mxPoint x="920" y="280" as="sourcePoint" />
            <mxPoint x="629.9999999999998" y="-20" as="targetPoint" />
          </mxGeometry>
        </mxCell>
        <mxCell id="bvwN4WITmdQyCTtZIi4v-119" value="" style="endArrow=none;html=1;rounded=0;fontFamily=Lucida Console;fontSize=12;fontColor=#6E67A1;strokeColor=#6E67A1;exitX=0.5;exitY=1;exitDx=0;exitDy=0;strokeWidth=2;" parent="1" source="bvwN4WITmdQyCTtZIi4v-90" edge="1">
          <mxGeometry width="50" height="50" relative="1" as="geometry">
            <mxPoint x="709.9999999999998" y="30" as="sourcePoint" />
            <mxPoint x="920" y="280" as="targetPoint" />
          </mxGeometry>
        </mxCell>
        <mxCell id="bvwN4WITmdQyCTtZIi4v-121" value="" style="endArrow=none;html=1;rounded=0;fontFamily=Lucida Console;fontSize=12;fontColor=#6E67A1;strokeColor=#6E67A1;strokeWidth=2;" parent="1" edge="1">
          <mxGeometry width="50" height="50" relative="1" as="geometry">
            <mxPoint x="314" y="7" as="sourcePoint" />
            <mxPoint x="384" y="7" as="targetPoint" />
          </mxGeometry>
        </mxCell>
        <mxCell id="bvwN4WITmdQyCTtZIi4v-123" value="" style="endArrow=none;html=1;rounded=0;fontFamily=Lucida Console;fontSize=12;fontColor=#6E67A1;strokeColor=#6E67A1;strokeWidth=2;" parent="1" edge="1">
          <mxGeometry width="50" height="50" relative="1" as="geometry">
            <mxPoint x="829.9999999999998" y="-7" as="sourcePoint" />
            <mxPoint x="899.9999999999998" y="-7" as="targetPoint" />
          </mxGeometry>
        </mxCell>
        <mxCell id="bvwN4WITmdQyCTtZIi4v-124" value="" style="endArrow=none;html=1;rounded=0;fontFamily=Lucida Console;fontSize=12;fontColor=#6E67A1;strokeColor=#6E67A1;strokeWidth=2;" parent="1" edge="1">
          <mxGeometry width="50" height="50" relative="1" as="geometry">
            <mxPoint x="179.99999999999977" y="254" as="sourcePoint" />
            <mxPoint x="249.99999999999977" y="254" as="targetPoint" />
          </mxGeometry>
        </mxCell>
        <mxCell id="bvwN4WITmdQyCTtZIi4v-125" value="" style="endArrow=none;html=1;rounded=0;fontFamily=Lucida Console;fontSize=12;fontColor=#6E67A1;strokeColor=#6E67A1;strokeWidth=2;" parent="1" edge="1">
          <mxGeometry width="50" height="50" relative="1" as="geometry">
            <mxPoint x="185.99999999999977" y="509" as="sourcePoint" />
            <mxPoint x="255.99999999999977" y="509" as="targetPoint" />
          </mxGeometry>
        </mxCell>
        <mxCell id="bvwN4WITmdQyCTtZIi4v-126" value="" style="endArrow=none;html=1;rounded=0;fontFamily=Lucida Console;fontSize=12;fontColor=#6E67A1;strokeColor=#6E67A1;strokeWidth=2;" parent="1" edge="1">
          <mxGeometry width="50" height="50" relative="1" as="geometry">
            <mxPoint x="1134.9999999999998" y="500" as="sourcePoint" />
            <mxPoint x="1204.9999999999998" y="500" as="targetPoint" />
          </mxGeometry>
        </mxCell>
        <mxCell id="bvwN4WITmdQyCTtZIi4v-128" value="" style="endArrow=none;html=1;rounded=0;fontFamily=Lucida Console;fontSize=12;fontColor=#6E67A1;strokeColor=#6E67A1;strokeWidth=2;" parent="1" edge="1">
          <mxGeometry width="50" height="50" relative="1" as="geometry">
            <mxPoint x="780.9999999999998" y="215" as="sourcePoint" />
            <mxPoint x="850.9999999999998" y="215" as="targetPoint" />
          </mxGeometry>
        </mxCell>
        <mxCell id="bvwN4WITmdQyCTtZIi4v-130" value="" style="rounded=0;whiteSpace=wrap;html=1;fillColor=#dae8fc;strokeColor=#6c8ebf;strokeWidth=2;" parent="1" vertex="1">
          <mxGeometry x="-280" y="360" width="200" height="40" as="geometry" />
        </mxCell>
        <mxCell id="bvwN4WITmdQyCTtZIi4v-131" value="&lt;font style=&quot;font-size: 20px&quot; face=&quot;Lucida Console&quot; color=&quot;#6C8EBF&quot;&gt;TEMPLATE&lt;/font&gt;" style="text;html=1;strokeColor=none;fillColor=none;align=center;verticalAlign=middle;whiteSpace=wrap;rounded=0;" parent="1" vertex="1">
          <mxGeometry x="-210" y="365" width="60" height="30" as="geometry" />
        </mxCell>
        <mxCell id="bvwN4WITmdQyCTtZIi4v-132" value="" style="rhombus;whiteSpace=wrap;html=1;fontFamily=Lucida Console;fontSize=20;strokeWidth=2;fillColor=#fad7ac;strokeColor=#FF8000;fontStyle=1" parent="1" vertex="1">
          <mxGeometry x="-270" y="414" width="160" height="80" as="geometry" />
        </mxCell>
        <mxCell id="bvwN4WITmdQyCTtZIi4v-133" value="&lt;div&gt;&lt;font color=&quot;#FF8000&quot;&gt;template&lt;/font&gt;&lt;/div&gt;" style="text;html=1;strokeColor=none;fillColor=none;align=center;verticalAlign=middle;whiteSpace=wrap;rounded=0;fontFamily=Lucida Console;fontSize=20;fontColor=#6C8EBF;fontStyle=0" parent="1" vertex="1">
          <mxGeometry x="-220" y="439" width="60" height="30" as="geometry" />
        </mxCell>
        <mxCell id="bvwN4WITmdQyCTtZIi4v-134" value="" style="ellipse;whiteSpace=wrap;html=1;fontFamily=Lucida Console;fontSize=20;strokeColor=#6E67A1;strokeWidth=2;fillColor=#d0cee2;" parent="1" vertex="1">
          <mxGeometry x="-230" y="523" width="100" height="40" as="geometry" />
        </mxCell>
        <mxCell id="bvwN4WITmdQyCTtZIi4v-135" value="&lt;font style=&quot;font-size: 12px&quot; color=&quot;#6E67A1&quot;&gt;template&lt;/font&gt;" style="text;html=1;strokeColor=none;fillColor=none;align=center;verticalAlign=middle;whiteSpace=wrap;rounded=0;fontFamily=Lucida Console;fontSize=20;fontColor=#FF8000;" parent="1" vertex="1">
          <mxGeometry x="-210" y="535" width="60" height="12" as="geometry" />
        </mxCell>
        <mxCell id="bvwN4WITmdQyCTtZIi4v-138" value="" style="ellipse;whiteSpace=wrap;html=1;fontFamily=Lucida Console;fontSize=20;strokeColor=#6E67A1;strokeWidth=2;fillColor=#FFFFFF;" parent="1" vertex="1">
          <mxGeometry x="-230" y="583" width="100" height="40" as="geometry" />
        </mxCell>
        <mxCell id="bvwN4WITmdQyCTtZIi4v-139" value="" style="ellipse;whiteSpace=wrap;html=1;fontFamily=Lucida Console;fontSize=20;strokeColor=#6E67A1;strokeWidth=2;fillColor=#d0cee2;" parent="1" vertex="1">
          <mxGeometry x="-225" y="586" width="90" height="34" as="geometry" />
        </mxCell>
        <mxCell id="bvwN4WITmdQyCTtZIi4v-140" value="&lt;div&gt;&lt;font style=&quot;font-size: 12px&quot; color=&quot;#6E67A1&quot;&gt;template&lt;/font&gt;&lt;/div&gt;" style="text;html=1;strokeColor=none;fillColor=none;align=center;verticalAlign=middle;whiteSpace=wrap;rounded=0;fontFamily=Lucida Console;fontSize=20;fontColor=#FF8000;" parent="1" vertex="1">
          <mxGeometry x="-210" y="595" width="60" height="12" as="geometry" />
        </mxCell>
        <mxCell id="bvwN4WITmdQyCTtZIi4v-141" value="" style="rounded=0;whiteSpace=wrap;html=1;fillColor=#dae8fc;strokeColor=#6c8ebf;strokeWidth=2;" parent="1" vertex="1">
          <mxGeometry x="820" y="760" width="200" height="40" as="geometry" />
        </mxCell>
        <mxCell id="bvwN4WITmdQyCTtZIi4v-142" value="&lt;font style=&quot;font-size: 20px&quot; face=&quot;Lucida Console&quot; color=&quot;#6C8EBF&quot;&gt;RESERVATION&lt;/font&gt;" style="text;html=1;strokeColor=none;fillColor=none;align=center;verticalAlign=middle;whiteSpace=wrap;rounded=0;" parent="1" vertex="1">
          <mxGeometry x="890" y="770" width="60" height="30" as="geometry" />
        </mxCell>
        <mxCell id="bvwN4WITmdQyCTtZIi4v-145" value="" style="rounded=0;whiteSpace=wrap;html=1;fillColor=#dae8fc;strokeColor=#6c8ebf;strokeWidth=2;" parent="1" vertex="1">
          <mxGeometry x="40" y="43" width="200" height="40" as="geometry" />
        </mxCell>
        <mxCell id="bvwN4WITmdQyCTtZIi4v-146" value="&lt;font style=&quot;font-size: 20px&quot; face=&quot;Lucida Console&quot; color=&quot;#6C8EBF&quot;&gt;CLOCK&lt;/font&gt;" style="text;html=1;strokeColor=none;fillColor=none;align=center;verticalAlign=middle;whiteSpace=wrap;rounded=0;" parent="1" vertex="1">
          <mxGeometry x="110" y="48" width="60" height="30" as="geometry" />
        </mxCell>
        <mxCell id="bvwN4WITmdQyCTtZIi4v-147" value="" style="ellipse;whiteSpace=wrap;html=1;fontFamily=Lucida Console;fontSize=20;strokeColor=#6E67A1;strokeWidth=2;fillColor=#d0cee2;" parent="1" vertex="1">
          <mxGeometry x="40" y="115" width="100" height="40" as="geometry" />
        </mxCell>
        <mxCell id="bvwN4WITmdQyCTtZIi4v-148" value="&lt;b&gt;&lt;font style=&quot;font-size: 12px&quot; color=&quot;#6E67A1&quot;&gt;p_date&lt;/font&gt;&lt;/b&gt;" style="text;html=1;strokeColor=none;fillColor=none;align=center;verticalAlign=middle;whiteSpace=wrap;rounded=0;fontFamily=Lucida Console;fontSize=20;fontColor=#FF8000;" parent="1" vertex="1">
          <mxGeometry x="60" y="127" width="60" height="12" as="geometry" />
        </mxCell>
        <mxCell id="bvwN4WITmdQyCTtZIi4v-149" value="" style="endArrow=none;html=1;rounded=0;fontFamily=Lucida Console;fontSize=12;fontColor=#6E67A1;strokeColor=#6E67A1;entryX=0.5;entryY=1;entryDx=0;entryDy=0;exitX=0.5;exitY=0;exitDx=0;exitDy=0;strokeWidth=2;" parent="1" edge="1">
          <mxGeometry width="50" height="50" relative="1" as="geometry">
            <mxPoint x="-155" y="330" as="sourcePoint" />
            <mxPoint x="-225" y="290" as="targetPoint" />
          </mxGeometry>
        </mxCell>
        <mxCell id="bvwN4WITmdQyCTtZIi4v-150" value="" style="endArrow=none;html=1;rounded=0;fontFamily=Lucida Console;fontSize=12;fontColor=#6E67A1;strokeColor=#6E67A1;entryX=0.5;entryY=0;entryDx=0;entryDy=0;exitX=0.5;exitY=1;exitDx=0;exitDy=0;strokeWidth=2;" parent="1" source="bvwN4WITmdQyCTtZIi4v-145" target="bvwN4WITmdQyCTtZIi4v-147" edge="1">
          <mxGeometry width="50" height="50" relative="1" as="geometry">
            <mxPoint x="230" y="153" as="sourcePoint" />
            <mxPoint x="160" y="113" as="targetPoint" />
          </mxGeometry>
        </mxCell>
        <mxCell id="bvwN4WITmdQyCTtZIi4v-151" value="" style="endArrow=none;html=1;rounded=0;fontFamily=Lucida Console;fontSize=12;fontColor=#6E67A1;strokeColor=#6E67A1;strokeWidth=2;" parent="1" edge="1">
          <mxGeometry width="50" height="50" relative="1" as="geometry">
            <mxPoint x="-230" y="252" as="sourcePoint" />
            <mxPoint x="-160" y="252" as="targetPoint" />
          </mxGeometry>
        </mxCell>
        <mxCell id="bvwN4WITmdQyCTtZIi4v-152" value="" style="endArrow=none;html=1;rounded=0;fontFamily=Lucida Console;fontSize=12;fontColor=#6E67A1;strokeColor=#6E67A1;strokeWidth=2;" parent="1" edge="1">
          <mxGeometry width="50" height="50" relative="1" as="geometry">
            <mxPoint x="56" y="145" as="sourcePoint" />
            <mxPoint x="126" y="145" as="targetPoint" />
          </mxGeometry>
        </mxCell>
        <mxCell id="bvwN4WITmdQyCTtZIi4v-153" value="" style="rounded=0;whiteSpace=wrap;html=1;fillColor=#dae8fc;strokeColor=#6c8ebf;strokeWidth=2;" parent="1" vertex="1">
          <mxGeometry x="1035" y="910" width="200" height="40" as="geometry" />
        </mxCell>
        <mxCell id="bvwN4WITmdQyCTtZIi4v-154" value="&lt;font style=&quot;font-size: 20px&quot; face=&quot;Lucida Console&quot; color=&quot;#6C8EBF&quot;&gt;PASSENGER&lt;/font&gt;" style="text;html=1;strokeColor=none;fillColor=none;align=center;verticalAlign=middle;whiteSpace=wrap;rounded=0;" parent="1" vertex="1">
          <mxGeometry x="1110" y="915" width="60" height="30" as="geometry" />
        </mxCell>
        <mxCell id="bvwN4WITmdQyCTtZIi4v-155" value="" style="ellipse;whiteSpace=wrap;html=1;fontFamily=Lucida Console;fontSize=20;strokeColor=#6E67A1;strokeWidth=2;fillColor=#d0cee2;" parent="1" vertex="1">
          <mxGeometry x="955" y="995" width="100" height="40" as="geometry" />
        </mxCell>
        <mxCell id="bvwN4WITmdQyCTtZIi4v-156" value="&lt;b&gt;&lt;font style=&quot;font-size: 12px&quot; color=&quot;#6E67A1&quot;&gt;customer_ID&lt;/font&gt;&lt;/b&gt;" style="text;html=1;strokeColor=none;fillColor=none;align=center;verticalAlign=middle;whiteSpace=wrap;rounded=0;fontFamily=Lucida Console;fontSize=20;fontColor=#FF8000;" parent="1" vertex="1">
          <mxGeometry x="975" y="1007" width="60" height="12" as="geometry" />
        </mxCell>
        <mxCell id="bvwN4WITmdQyCTtZIi4v-157" value="" style="ellipse;whiteSpace=wrap;html=1;fontFamily=Lucida Console;fontSize=20;strokeColor=#6E67A1;strokeWidth=2;fillColor=#d0cee2;" parent="1" vertex="1">
          <mxGeometry x="1060" y="995" width="100" height="40" as="geometry" />
        </mxCell>
        <mxCell id="bvwN4WITmdQyCTtZIi4v-158" value="&lt;font style=&quot;font-size: 12px&quot; color=&quot;#6E67A1&quot;&gt;first_name&lt;/font&gt;" style="text;html=1;strokeColor=none;fillColor=none;align=center;verticalAlign=middle;whiteSpace=wrap;rounded=0;fontFamily=Lucida Console;fontSize=20;fontColor=#FF8000;" parent="1" vertex="1">
          <mxGeometry x="1080" y="1007" width="60" height="12" as="geometry" />
        </mxCell>
        <mxCell id="bvwN4WITmdQyCTtZIi4v-159" value="" style="ellipse;whiteSpace=wrap;html=1;fontFamily=Lucida Console;fontSize=20;strokeColor=#6E67A1;strokeWidth=2;fillColor=#d0cee2;" parent="1" vertex="1">
          <mxGeometry x="1165" y="995" width="100" height="40" as="geometry" />
        </mxCell>
        <mxCell id="bvwN4WITmdQyCTtZIi4v-160" value="&lt;font style=&quot;font-size: 12px&quot; color=&quot;#6E67A1&quot;&gt;last_name&lt;/font&gt;" style="text;html=1;strokeColor=none;fillColor=none;align=center;verticalAlign=middle;whiteSpace=wrap;rounded=0;fontFamily=Lucida Console;fontSize=20;fontColor=#FF8000;" parent="1" vertex="1">
          <mxGeometry x="1185" y="1007" width="60" height="12" as="geometry" />
        </mxCell>
        <mxCell id="bvwN4WITmdQyCTtZIi4v-161" value="" style="ellipse;whiteSpace=wrap;html=1;fontFamily=Lucida Console;fontSize=20;strokeColor=#6E67A1;strokeWidth=2;fillColor=#d0cee2;" parent="1" vertex="1">
          <mxGeometry x="1260" y="955" width="100" height="40" as="geometry" />
        </mxCell>
        <mxCell id="bvwN4WITmdQyCTtZIi4v-162" value="&lt;font style=&quot;font-size: 12px&quot; color=&quot;#6E67A1&quot;&gt;address&lt;/font&gt;" style="text;html=1;strokeColor=none;fillColor=none;align=center;verticalAlign=middle;whiteSpace=wrap;rounded=0;fontFamily=Lucida Console;fontSize=20;fontColor=#FF8000;" parent="1" vertex="1">
          <mxGeometry x="1280" y="967" width="60" height="12" as="geometry" />
        </mxCell>
        <mxCell id="bvwN4WITmdQyCTtZIi4v-165" value="" style="ellipse;whiteSpace=wrap;html=1;fontFamily=Lucida Console;fontSize=20;strokeColor=#6E67A1;strokeWidth=2;fillColor=#d0cee2;" parent="1" vertex="1">
          <mxGeometry x="1255" y="860" width="100" height="40" as="geometry" />
        </mxCell>
        <mxCell id="bvwN4WITmdQyCTtZIi4v-166" value="&lt;font style=&quot;font-size: 12px&quot; color=&quot;#6E67A1&quot;&gt;email&lt;/font&gt;" style="text;html=1;strokeColor=none;fillColor=none;align=center;verticalAlign=middle;whiteSpace=wrap;rounded=0;fontFamily=Lucida Console;fontSize=20;fontColor=#FF8000;" parent="1" vertex="1">
          <mxGeometry x="1275" y="872" width="60" height="12" as="geometry" />
        </mxCell>
        <mxCell id="bvwN4WITmdQyCTtZIi4v-167" value="" style="ellipse;whiteSpace=wrap;html=1;fontFamily=Lucida Console;fontSize=20;strokeColor=#6E67A1;strokeWidth=2;fillColor=#FFFFFF;" parent="1" vertex="1">
          <mxGeometry x="1260" y="907" width="100" height="40" as="geometry" />
        </mxCell>
        <mxCell id="bvwN4WITmdQyCTtZIi4v-168" value="" style="ellipse;whiteSpace=wrap;html=1;fontFamily=Lucida Console;fontSize=20;strokeColor=#6E67A1;strokeWidth=2;fillColor=#d0cee2;" parent="1" vertex="1">
          <mxGeometry x="1265" y="910" width="90" height="34" as="geometry" />
        </mxCell>
        <mxCell id="bvwN4WITmdQyCTtZIi4v-169" value="&lt;div&gt;&lt;font style=&quot;font-size: 12px&quot; color=&quot;#6E67A1&quot;&gt;phone_no&lt;/font&gt;&lt;/div&gt;" style="text;html=1;strokeColor=none;fillColor=none;align=center;verticalAlign=middle;whiteSpace=wrap;rounded=0;fontFamily=Lucida Console;fontSize=20;fontColor=#FF8000;" parent="1" vertex="1">
          <mxGeometry x="1280" y="919" width="60" height="12" as="geometry" />
        </mxCell>
        <mxCell id="bvwN4WITmdQyCTtZIi4v-170" value="" style="rhombus;whiteSpace=wrap;html=1;fontFamily=Lucida Console;fontSize=20;strokeWidth=2;fillColor=#fad7ac;strokeColor=#FF8000;fontStyle=1" parent="1" vertex="1">
          <mxGeometry x="840" y="887" width="160" height="80" as="geometry" />
        </mxCell>
        <mxCell id="bvwN4WITmdQyCTtZIi4v-171" value="&lt;div&gt;&lt;font color=&quot;#FF8000&quot;&gt;books&lt;/font&gt;&lt;/div&gt;" style="text;html=1;strokeColor=none;fillColor=none;align=center;verticalAlign=middle;whiteSpace=wrap;rounded=0;fontFamily=Lucida Console;fontSize=20;fontColor=#6C8EBF;fontStyle=0" parent="1" vertex="1">
          <mxGeometry x="890" y="912" width="60" height="30" as="geometry" />
        </mxCell>
        <mxCell id="bvwN4WITmdQyCTtZIi4v-172" value="" style="endArrow=none;html=1;rounded=0;fontFamily=Lucida Console;fontSize=12;fontColor=#6E67A1;strokeColor=#6E67A1;entryX=0.5;entryY=1;entryDx=0;entryDy=0;exitX=0.5;exitY=0;exitDx=0;exitDy=0;strokeWidth=2;" parent="1" source="bvwN4WITmdQyCTtZIi4v-155" target="bvwN4WITmdQyCTtZIi4v-153" edge="1">
          <mxGeometry width="50" height="50" relative="1" as="geometry">
            <mxPoint x="1220" y="985" as="sourcePoint" />
            <mxPoint x="1150" y="945" as="targetPoint" />
          </mxGeometry>
        </mxCell>
        <mxCell id="bvwN4WITmdQyCTtZIi4v-173" value="" style="endArrow=none;html=1;rounded=0;fontFamily=Lucida Console;fontSize=12;fontColor=#6E67A1;strokeColor=#6E67A1;entryX=0.5;entryY=1;entryDx=0;entryDy=0;exitX=0.5;exitY=0;exitDx=0;exitDy=0;strokeWidth=2;" parent="1" source="bvwN4WITmdQyCTtZIi4v-157" target="bvwN4WITmdQyCTtZIi4v-153" edge="1">
          <mxGeometry width="50" height="50" relative="1" as="geometry">
            <mxPoint x="1015" y="875" as="sourcePoint" />
            <mxPoint x="1150" y="835" as="targetPoint" />
          </mxGeometry>
        </mxCell>
        <mxCell id="bvwN4WITmdQyCTtZIi4v-174" value="" style="endArrow=none;html=1;rounded=0;fontFamily=Lucida Console;fontSize=12;fontColor=#6E67A1;strokeColor=#6E67A1;entryX=0.5;entryY=1;entryDx=0;entryDy=0;exitX=0.5;exitY=0;exitDx=0;exitDy=0;strokeWidth=2;" parent="1" source="bvwN4WITmdQyCTtZIi4v-159" target="bvwN4WITmdQyCTtZIi4v-153" edge="1">
          <mxGeometry width="50" height="50" relative="1" as="geometry">
            <mxPoint x="1025" y="885" as="sourcePoint" />
            <mxPoint x="1160" y="845" as="targetPoint" />
          </mxGeometry>
        </mxCell>
        <mxCell id="bvwN4WITmdQyCTtZIi4v-175" value="" style="endArrow=none;html=1;rounded=0;fontFamily=Lucida Console;fontSize=12;fontColor=#6E67A1;strokeColor=#6E67A1;entryX=1;entryY=0.5;entryDx=0;entryDy=0;exitX=0;exitY=0.5;exitDx=0;exitDy=0;strokeWidth=2;" parent="1" source="bvwN4WITmdQyCTtZIi4v-161" edge="1">
          <mxGeometry width="50" height="50" relative="1" as="geometry">
            <mxPoint x="1030" y="1017.5" as="sourcePoint" />
            <mxPoint x="1235" y="927.5" as="targetPoint" />
          </mxGeometry>
        </mxCell>
        <mxCell id="bvwN4WITmdQyCTtZIi4v-176" value="" style="endArrow=none;html=1;rounded=0;fontFamily=Lucida Console;fontSize=12;fontColor=#6E67A1;strokeColor=#6E67A1;entryX=1;entryY=0.5;entryDx=0;entryDy=0;exitX=0;exitY=0.5;exitDx=0;exitDy=0;strokeWidth=2;" parent="1" source="bvwN4WITmdQyCTtZIi4v-167" edge="1">
          <mxGeometry width="50" height="50" relative="1" as="geometry">
            <mxPoint x="1040" y="1027.5" as="sourcePoint" />
            <mxPoint x="1235" y="927.5" as="targetPoint" />
          </mxGeometry>
        </mxCell>
        <mxCell id="bvwN4WITmdQyCTtZIi4v-177" value="" style="endArrow=none;html=1;rounded=0;fontFamily=Lucida Console;fontSize=12;fontColor=#6E67A1;strokeColor=#6E67A1;entryX=0;entryY=0.5;entryDx=0;entryDy=0;exitX=1;exitY=0.5;exitDx=0;exitDy=0;strokeWidth=2;" parent="1" target="bvwN4WITmdQyCTtZIi4v-165" edge="1">
          <mxGeometry width="50" height="50" relative="1" as="geometry">
            <mxPoint x="1235" y="927.5" as="sourcePoint" />
            <mxPoint x="1185" y="997.5" as="targetPoint" />
          </mxGeometry>
        </mxCell>
        <mxCell id="bvwN4WITmdQyCTtZIi4v-178" value="" style="ellipse;whiteSpace=wrap;html=1;fontFamily=Lucida Console;fontSize=20;strokeColor=#6E67A1;strokeWidth=2;fillColor=#d0cee2;" parent="1" vertex="1">
          <mxGeometry x="995" y="651.5" width="100" height="40" as="geometry" />
        </mxCell>
        <mxCell id="bvwN4WITmdQyCTtZIi4v-179" value="&lt;b&gt;&lt;font style=&quot;font-size: 12px&quot; color=&quot;#6E67A1&quot;&gt;reserv_no&lt;/font&gt;&lt;/b&gt;" style="text;html=1;strokeColor=none;fillColor=none;align=center;verticalAlign=middle;whiteSpace=wrap;rounded=0;fontFamily=Lucida Console;fontSize=20;fontColor=#FF8000;" parent="1" vertex="1">
          <mxGeometry x="1015" y="663.5" width="60" height="12" as="geometry" />
        </mxCell>
        <mxCell id="bvwN4WITmdQyCTtZIi4v-180" value="" style="ellipse;whiteSpace=wrap;html=1;fontFamily=Lucida Console;fontSize=20;strokeColor=#6E67A1;strokeWidth=2;fillColor=#d0cee2;" parent="1" vertex="1">
          <mxGeometry x="1077.5" y="705" width="100" height="40" as="geometry" />
        </mxCell>
        <mxCell id="bvwN4WITmdQyCTtZIi4v-181" value="&lt;font style=&quot;font-size: 12px&quot; color=&quot;#6E67A1&quot;&gt;price&lt;/font&gt;" style="text;html=1;strokeColor=none;fillColor=none;align=center;verticalAlign=middle;whiteSpace=wrap;rounded=0;fontFamily=Lucida Console;fontSize=20;fontColor=#FF8000;" parent="1" vertex="1">
          <mxGeometry x="1097.5" y="717" width="60" height="12" as="geometry" />
        </mxCell>
        <mxCell id="bvwN4WITmdQyCTtZIi4v-186" value="" style="ellipse;whiteSpace=wrap;html=1;fontFamily=Lucida Console;fontSize=20;strokeColor=#6E67A1;strokeWidth=2;fillColor=#d0cee2;" parent="1" vertex="1">
          <mxGeometry x="190" y="760" width="100" height="40" as="geometry" />
        </mxCell>
        <mxCell id="bvwN4WITmdQyCTtZIi4v-187" value="&lt;font style=&quot;font-size: 12px&quot; color=&quot;#6E67A1&quot;&gt;&lt;b&gt;ticket_no&lt;/b&gt;&lt;/font&gt;" style="text;html=1;strokeColor=none;fillColor=none;align=center;verticalAlign=middle;whiteSpace=wrap;rounded=0;fontFamily=Lucida Console;fontSize=20;fontColor=#FF8000;" parent="1" vertex="1">
          <mxGeometry x="210" y="765" width="60" height="12" as="geometry" />
        </mxCell>
        <mxCell id="bvwN4WITmdQyCTtZIi4v-188" value="" style="ellipse;whiteSpace=wrap;html=1;fontFamily=Lucida Console;fontSize=20;strokeColor=#6E67A1;strokeWidth=2;fillColor=#FFFFFF;" parent="1" vertex="1">
          <mxGeometry x="1077.5" y="754.5" width="100" height="40" as="geometry" />
        </mxCell>
        <mxCell id="bvwN4WITmdQyCTtZIi4v-189" value="" style="ellipse;whiteSpace=wrap;html=1;fontFamily=Lucida Console;fontSize=20;strokeColor=#6E67A1;strokeWidth=2;fillColor=#d0cee2;" parent="1" vertex="1">
          <mxGeometry x="1082.5" y="757.5" width="90" height="34" as="geometry" />
        </mxCell>
        <mxCell id="bvwN4WITmdQyCTtZIi4v-190" value="&lt;div&gt;&lt;font style=&quot;font-size: 12px&quot; color=&quot;#6E67A1&quot;&gt;payments&lt;/font&gt;&lt;/div&gt;" style="text;html=1;strokeColor=none;fillColor=none;align=center;verticalAlign=middle;whiteSpace=wrap;rounded=0;fontFamily=Lucida Console;fontSize=20;fontColor=#FF8000;" parent="1" vertex="1">
          <mxGeometry x="1097.5" y="766.5" width="60" height="12" as="geometry" />
        </mxCell>
        <mxCell id="bvwN4WITmdQyCTtZIi4v-194" value="" style="ellipse;whiteSpace=wrap;html=1;fontFamily=Lucida Console;fontSize=20;strokeColor=#56517e;strokeWidth=2;fillColor=#d0cee2;dashed=1;" parent="1" vertex="1">
          <mxGeometry x="1077.5" y="803" width="100" height="40" as="geometry" />
        </mxCell>
        <mxCell id="bvwN4WITmdQyCTtZIi4v-195" value="&lt;font style=&quot;font-size: 12px&quot; color=&quot;#6E67A1&quot;&gt;balance&lt;/font&gt;" style="text;html=1;strokeColor=none;fillColor=none;align=center;verticalAlign=middle;whiteSpace=wrap;rounded=0;fontFamily=Lucida Console;fontSize=20;fontColor=#FF8000;" parent="1" vertex="1">
          <mxGeometry x="1097.5" y="815" width="60" height="12" as="geometry" />
        </mxCell>
        <mxCell id="bvwN4WITmdQyCTtZIi4v-197" value="" style="endArrow=none;html=1;rounded=0;fontFamily=Lucida Console;fontSize=12;fontColor=#6E67A1;strokeColor=#6E67A1;entryX=0.5;entryY=1;entryDx=0;entryDy=0;exitX=0.5;exitY=0;exitDx=0;exitDy=0;strokeWidth=2;" parent="1" edge="1">
          <mxGeometry width="50" height="50" relative="1" as="geometry">
            <mxPoint x="-110" y="320" as="sourcePoint" />
            <mxPoint x="-180" y="280" as="targetPoint" />
          </mxGeometry>
        </mxCell>
        <mxCell id="bvwN4WITmdQyCTtZIi4v-203" value="" style="endArrow=none;html=1;rounded=0;fontFamily=Lucida Console;fontSize=12;fontColor=#6E67A1;strokeColor=#6E67A1;entryX=0.5;entryY=1;entryDx=0;entryDy=0;exitX=1;exitY=0.5;exitDx=0;exitDy=0;strokeWidth=2;" parent="1" source="bvwN4WITmdQyCTtZIi4v-141" target="bvwN4WITmdQyCTtZIi4v-178" edge="1">
          <mxGeometry width="50" height="50" relative="1" as="geometry">
            <mxPoint x="1145" y="660" as="sourcePoint" />
            <mxPoint x="1105" y="550" as="targetPoint" />
          </mxGeometry>
        </mxCell>
        <mxCell id="bvwN4WITmdQyCTtZIi4v-204" value="" style="endArrow=none;html=1;rounded=0;fontFamily=Lucida Console;fontSize=12;fontColor=#6E67A1;strokeColor=#6E67A1;entryX=1;entryY=0.5;entryDx=0;entryDy=0;exitX=0;exitY=0.5;exitDx=0;exitDy=0;strokeWidth=2;" parent="1" source="vStZy5G3cpGjvrvQ28vG-1" target="bvwN4WITmdQyCTtZIi4v-186" edge="1">
          <mxGeometry width="50" height="50" relative="1" as="geometry">
            <mxPoint x="309.99999999999955" y="724" as="sourcePoint" />
            <mxPoint x="250" y="784" as="targetPoint" />
          </mxGeometry>
        </mxCell>
        <mxCell id="bvwN4WITmdQyCTtZIi4v-205" value="" style="endArrow=none;html=1;rounded=0;fontFamily=Lucida Console;fontSize=12;fontColor=#6E67A1;strokeColor=#6E67A1;entryX=1;entryY=0.5;entryDx=0;entryDy=0;exitX=0;exitY=0.5;exitDx=0;exitDy=0;strokeWidth=2;" parent="1" source="bvwN4WITmdQyCTtZIi4v-180" target="bvwN4WITmdQyCTtZIi4v-141" edge="1">
          <mxGeometry width="50" height="50" relative="1" as="geometry">
            <mxPoint x="1077.5" y="729" as="sourcePoint" />
            <mxPoint x="1022.5" y="890" as="targetPoint" />
          </mxGeometry>
        </mxCell>
        <mxCell id="bvwN4WITmdQyCTtZIi4v-206" value="" style="endArrow=none;html=1;rounded=0;fontFamily=Lucida Console;fontSize=12;fontColor=#6E67A1;strokeColor=#6E67A1;exitX=0;exitY=0.5;exitDx=0;exitDy=0;strokeWidth=2;" parent="1" edge="1">
          <mxGeometry width="50" height="50" relative="1" as="geometry">
            <mxPoint x="1077.5" y="774" as="sourcePoint" />
            <mxPoint x="1022.5" y="774" as="targetPoint" />
          </mxGeometry>
        </mxCell>
        <mxCell id="bvwN4WITmdQyCTtZIi4v-207" value="" style="endArrow=none;html=1;rounded=0;fontFamily=Lucida Console;fontSize=12;fontColor=#6E67A1;strokeColor=#6E67A1;entryX=1;entryY=0.5;entryDx=0;entryDy=0;exitX=0;exitY=0.5;exitDx=0;exitDy=0;strokeWidth=2;" parent="1" target="bvwN4WITmdQyCTtZIi4v-141" edge="1">
          <mxGeometry width="50" height="50" relative="1" as="geometry">
            <mxPoint x="1077.5" y="822.5" as="sourcePoint" />
            <mxPoint x="1022.5" y="890" as="targetPoint" />
          </mxGeometry>
        </mxCell>
        <mxCell id="bvwN4WITmdQyCTtZIi4v-208" value="" style="endArrow=none;html=1;rounded=0;fontFamily=Lucida Console;fontSize=12;fontColor=#6E67A1;strokeColor=#6E67A1;strokeWidth=2;" parent="1" edge="1">
          <mxGeometry width="50" height="50" relative="1" as="geometry">
            <mxPoint x="1010" y="681.5" as="sourcePoint" />
            <mxPoint x="1080" y="681.5" as="targetPoint" />
          </mxGeometry>
        </mxCell>
        <mxCell id="bvwN4WITmdQyCTtZIi4v-209" value="" style="endArrow=none;html=1;rounded=0;fontFamily=Lucida Console;fontSize=12;fontColor=#6E67A1;strokeColor=#6E67A1;strokeWidth=2;" parent="1" edge="1">
          <mxGeometry width="50" height="50" relative="1" as="geometry">
            <mxPoint x="970" y="1024" as="sourcePoint" />
            <mxPoint x="1040" y="1024" as="targetPoint" />
          </mxGeometry>
        </mxCell>
        <mxCell id="vStZy5G3cpGjvrvQ28vG-1" value="&lt;span style=&quot;color: rgba(0 , 0 , 0 , 0) ; font-family: monospace ; font-size: 0px&quot;&gt;%3CmxGraphModel%3E%3Croot%3E%3CmxCell%20id%3D%220%22%2F%3E%3CmxCell%20id%3D%221%22%20parent%3D%220%22%2F%3E%3CmxCell%20id%3D%222%22%20value%3D%22%22%20style%3D%22endArrow%3Dnone%3Bhtml%3D1%3Brounded%3D0%3BfontFamily%3DLucida%20Console%3BfontSize%3D20%3BfontColor%3D%23FF8000%3BentryX%3D0.5%3BentryY%3D1%3BentryDx%3D0%3BentryDy%3D0%3BexitX%3D0.5%3BexitY%3D0%3BexitDx%3D0%3BexitDy%3D0%3BstrokeColor%3D%23000000%3B%22%20edge%3D%221%22%20parent%3D%221%22%3E%3CmxGeometry%20width%3D%2250%22%20height%3D%2250%22%20relative%3D%221%22%20as%3D%22geometry%22%3E%3CmxPoint%20x%3D%22440.8899999999999%22%20y%3D%22620%22%20as%3D%22sourcePoint%22%2F%3E%3CmxPoint%20x%3D%22440.8899999999999%22%20y%3D%22560%22%20as%3D%22targetPoint%22%2F%3E%3C%2FmxGeometry%3E%3C%2FmxCell%3E%3C%2Froot%3E%3C%2FmxGraphModel%3E&lt;/span&gt;" style="rounded=0;whiteSpace=wrap;html=1;fillColor=#dae8fc;strokeColor=#6c8ebf;strokeWidth=2;" parent="1" vertex="1">
          <mxGeometry x="350" y="760" width="200" height="40" as="geometry" />
        </mxCell>
        <mxCell id="vStZy5G3cpGjvrvQ28vG-6" value="&lt;font style=&quot;font-size: 20px&quot; face=&quot;Lucida Console&quot; color=&quot;#6C8EBF&quot;&gt;TICKET&lt;/font&gt;" style="text;html=1;strokeColor=none;fillColor=none;align=center;verticalAlign=middle;whiteSpace=wrap;rounded=0;" parent="1" vertex="1">
          <mxGeometry x="420" y="765" width="60" height="30" as="geometry" />
        </mxCell>
        <mxCell id="vStZy5G3cpGjvrvQ28vG-8" value="" style="endArrow=none;html=1;rounded=0;fontFamily=Lucida Console;fontSize=12;fontColor=#6E67A1;strokeColor=#6E67A1;strokeWidth=2;" parent="1" edge="1">
          <mxGeometry width="50" height="50" relative="1" as="geometry">
            <mxPoint x="205" y="785" as="sourcePoint" />
            <mxPoint x="275" y="785" as="targetPoint" />
          </mxGeometry>
        </mxCell>
        <mxCell id="vStZy5G3cpGjvrvQ28vG-13" value="" style="rhombus;whiteSpace=wrap;html=1;fontFamily=Lucida Console;fontSize=20;strokeWidth=2;fillColor=#fad7ac;strokeColor=#FF8000;" parent="1" vertex="1">
          <mxGeometry x="360" y="140" width="160" height="80" as="geometry" />
        </mxCell>
        <mxCell id="vStZy5G3cpGjvrvQ28vG-14" value="&lt;div&gt;&lt;font color=&quot;#FF8000&quot;&gt;composes&lt;/font&gt;&lt;/div&gt;" style="text;html=1;strokeColor=none;fillColor=none;align=center;verticalAlign=middle;whiteSpace=wrap;rounded=0;fontFamily=Lucida Console;fontSize=20;fontColor=#6C8EBF;" parent="1" vertex="1">
          <mxGeometry x="409" y="165" width="60" height="30" as="geometry" />
        </mxCell>
        <mxCell id="vStZy5G3cpGjvrvQ28vG-16" value="" style="endArrow=none;html=1;rounded=0;fontFamily=Lucida Console;fontSize=20;fontColor=#FF8000;exitX=0.5;exitY=0;exitDx=0;exitDy=0;strokeColor=#000000;entryX=0.5;entryY=1;entryDx=0;entryDy=0;strokeWidth=2;" parent="1" edge="1">
          <mxGeometry width="50" height="50" relative="1" as="geometry">
            <mxPoint x="439.5" y="143" as="sourcePoint" />
            <mxPoint x="439.5" y="83" as="targetPoint" />
          </mxGeometry>
        </mxCell>
        <mxCell id="vStZy5G3cpGjvrvQ28vG-17" value="" style="ellipse;whiteSpace=wrap;html=1;fontFamily=Lucida Console;fontSize=20;strokeColor=#6E67A1;strokeWidth=2;fillColor=#d0cee2;" parent="1" vertex="1">
          <mxGeometry x="170" y="577" width="100" height="40" as="geometry" />
        </mxCell>
        <mxCell id="vStZy5G3cpGjvrvQ28vG-18" value="" style="ellipse;whiteSpace=wrap;html=1;fontFamily=Lucida Console;fontSize=20;strokeColor=#6E67A1;strokeWidth=2;fillColor=#d0cee2;" parent="1" vertex="1">
          <mxGeometry x="170" y="625.5" width="100" height="40" as="geometry" />
        </mxCell>
        <mxCell id="vStZy5G3cpGjvrvQ28vG-19" value="&lt;font style=&quot;font-size: 12px&quot; color=&quot;#6E67A1&quot;&gt;depart_station&lt;/font&gt;" style="text;html=1;strokeColor=none;fillColor=none;align=center;verticalAlign=middle;whiteSpace=wrap;rounded=0;fontFamily=Lucida Console;fontSize=20;fontColor=#FF8000;" parent="1" vertex="1">
          <mxGeometry x="190" y="591" width="60" height="12" as="geometry" />
        </mxCell>
        <mxCell id="vStZy5G3cpGjvrvQ28vG-20" value="&lt;font style=&quot;font-size: 12px&quot; color=&quot;#6E67A1&quot;&gt;dest_station&lt;/font&gt;" style="text;html=1;strokeColor=none;fillColor=none;align=center;verticalAlign=middle;whiteSpace=wrap;rounded=0;fontFamily=Lucida Console;fontSize=20;fontColor=#FF8000;" parent="1" vertex="1">
          <mxGeometry x="190" y="639.5" width="60" height="12" as="geometry" />
        </mxCell>
        <mxCell id="vStZy5G3cpGjvrvQ28vG-21" value="" style="endArrow=none;html=1;rounded=0;fontFamily=Lucida Console;fontSize=12;fontColor=#6E67A1;strokeColor=#6E67A1;entryX=0;entryY=0.5;entryDx=0;entryDy=0;strokeWidth=2;exitX=1;exitY=0.5;exitDx=0;exitDy=0;" parent="1" source="vStZy5G3cpGjvrvQ28vG-17" target="bvwN4WITmdQyCTtZIi4v-12" edge="1">
          <mxGeometry width="50" height="50" relative="1" as="geometry">
            <mxPoint x="280" y="590" as="sourcePoint" />
            <mxPoint x="379.00000000001" y="617" as="targetPoint" />
          </mxGeometry>
        </mxCell>
        <mxCell id="vStZy5G3cpGjvrvQ28vG-22" value="" style="endArrow=none;html=1;rounded=0;fontFamily=Lucida Console;fontSize=12;fontColor=#6E67A1;strokeColor=#6E67A1;strokeWidth=2;entryX=1;entryY=0.5;entryDx=0;entryDy=0;exitX=0;exitY=0.5;exitDx=0;exitDy=0;" parent="1" source="bvwN4WITmdQyCTtZIi4v-12" target="vStZy5G3cpGjvrvQ28vG-18" edge="1">
          <mxGeometry width="50" height="50" relative="1" as="geometry">
            <mxPoint x="-40" y="577.75" as="sourcePoint" />
            <mxPoint x="60" y="638.5" as="targetPoint" />
          </mxGeometry>
        </mxCell>
        <mxCell id="vStZy5G3cpGjvrvQ28vG-24" value="&lt;font color=&quot;#ff8000&quot;&gt;&lt;span&gt;passed by&lt;br&gt;&lt;/span&gt;&lt;/font&gt;" style="text;html=1;strokeColor=none;fillColor=none;align=center;verticalAlign=middle;whiteSpace=wrap;rounded=0;fontFamily=Lucida Console;fontSize=20;fontColor=#6C8EBF;" parent="1" vertex="1">
          <mxGeometry x="410" y="425" width="60" height="30" as="geometry" />
        </mxCell>
        <mxCell id="vStZy5G3cpGjvrvQ28vG-25" value="" style="endArrow=none;html=1;rounded=0;fontFamily=Lucida Console;fontSize=12;fontColor=#6E67A1;strokeColor=#6E67A1;entryX=1;entryY=0.5;entryDx=0;entryDy=0;exitX=0;exitY=0.5;exitDx=0;exitDy=0;strokeWidth=2;" parent="1" source="bvwN4WITmdQyCTtZIi4v-8" target="bvwN4WITmdQyCTtZIi4v-55" edge="1">
          <mxGeometry width="50" height="50" relative="1" as="geometry">
            <mxPoint x="290" y="278" as="sourcePoint" />
            <mxPoint x="345" y="238" as="targetPoint" />
            <Array as="points" />
          </mxGeometry>
        </mxCell>
        <mxCell id="vStZy5G3cpGjvrvQ28vG-26" value="" style="endArrow=none;html=1;rounded=0;fontFamily=Lucida Console;fontSize=20;fontColor=#FF8000;entryX=1;entryY=0.5;entryDx=0;entryDy=0;exitX=0;exitY=0.5;exitDx=0;exitDy=0;strokeColor=#000000;strokeWidth=2;" parent="1" source="vStZy5G3cpGjvrvQ28vG-57" target="vStZy5G3cpGjvrvQ28vG-1" edge="1">
          <mxGeometry width="50" height="50" relative="1" as="geometry">
            <mxPoint x="440.94000000000005" y="380" as="sourcePoint" />
            <mxPoint x="440.94000000000005" y="320" as="targetPoint" />
          </mxGeometry>
        </mxCell>
        <mxCell id="vStZy5G3cpGjvrvQ28vG-30" value="" style="group" parent="1" vertex="1" connectable="0">
          <mxGeometry x="350" y="567" width="200" height="40" as="geometry" />
        </mxCell>
        <mxCell id="vStZy5G3cpGjvrvQ28vG-31" value="&lt;font style=&quot;font-size: 20px&quot; face=&quot;Lucida Console&quot; color=&quot;#6C8EBF&quot;&gt;ROUTE&lt;/font&gt;" style="text;html=1;strokeColor=none;fillColor=none;align=center;verticalAlign=middle;whiteSpace=wrap;rounded=0;" parent="vStZy5G3cpGjvrvQ28vG-30" vertex="1">
          <mxGeometry x="70" y="5" width="60" height="30" as="geometry" />
        </mxCell>
        <mxCell id="bvwN4WITmdQyCTtZIi4v-12" value="&lt;span style=&quot;color: rgb(108 , 142 , 191) ; font-family: &amp;#34;lucida console&amp;#34; ; font-size: 20px&quot;&gt;Route&lt;/span&gt;" style="rounded=0;whiteSpace=wrap;html=1;fillColor=#dae8fc;strokeColor=#6c8ebf;strokeWidth=2;" parent="vStZy5G3cpGjvrvQ28vG-30" vertex="1">
          <mxGeometry y="-5" width="200" height="40" as="geometry" />
        </mxCell>
        <mxCell id="vStZy5G3cpGjvrvQ28vG-32" value="" style="rhombus;whiteSpace=wrap;html=1;fontFamily=Lucida Console;fontSize=20;strokeWidth=2;fillColor=#fad7ac;strokeColor=#FF8000;" parent="1" vertex="1">
          <mxGeometry x="840" y="543" width="160" height="80" as="geometry" />
        </mxCell>
        <mxCell id="vStZy5G3cpGjvrvQ28vG-33" value="&lt;font color=&quot;#ff8000&quot;&gt;&lt;span&gt;follows&lt;br&gt;&lt;/span&gt;&lt;/font&gt;" style="text;html=1;strokeColor=none;fillColor=none;align=center;verticalAlign=middle;whiteSpace=wrap;rounded=0;fontFamily=Lucida Console;fontSize=20;fontColor=#6C8EBF;" parent="1" vertex="1">
          <mxGeometry x="850" y="565" width="140" height="30" as="geometry" />
        </mxCell>
        <mxCell id="vStZy5G3cpGjvrvQ28vG-36" value="" style="endArrow=none;html=1;rounded=0;fontFamily=Lucida Console;fontSize=20;fontColor=#FF8000;entryX=0;entryY=0.5;entryDx=0;entryDy=0;exitX=1;exitY=0.5;exitDx=0;exitDy=0;strokeColor=#000000;strokeWidth=2;" parent="1" source="vStZy5G3cpGjvrvQ28vG-32" target="bvwN4WITmdQyCTtZIi4v-15" edge="1">
          <mxGeometry width="50" height="50" relative="1" as="geometry">
            <mxPoint x="960" y="515" as="sourcePoint" />
            <mxPoint x="905" y="586" as="targetPoint" />
          </mxGeometry>
        </mxCell>
        <mxCell id="bvwN4WITmdQyCTtZIi4v-93" value="&lt;font style=&quot;font-size: 12px&quot; color=&quot;#6E67A1&quot;&gt;price_per_mile&lt;/font&gt;" style="text;html=1;strokeColor=none;fillColor=none;align=center;verticalAlign=middle;whiteSpace=wrap;rounded=0;fontFamily=Lucida Console;fontSize=20;fontColor=#FF8000;" parent="1" vertex="1">
          <mxGeometry x="1025" y="208" width="60" height="12" as="geometry" />
        </mxCell>
        <mxCell id="vStZy5G3cpGjvrvQ28vG-41" value="" style="endArrow=none;html=1;rounded=0;fontFamily=Lucida Console;fontSize=12;fontColor=#6E67A1;strokeColor=#6E67A1;entryX=0.5;entryY=1;entryDx=0;entryDy=0;strokeWidth=2;" parent="1" target="bvwN4WITmdQyCTtZIi4v-92" edge="1">
          <mxGeometry width="50" height="50" relative="1" as="geometry">
            <mxPoint x="920" y="280" as="sourcePoint" />
            <mxPoint x="1055" y="197" as="targetPoint" />
          </mxGeometry>
        </mxCell>
        <mxCell id="vStZy5G3cpGjvrvQ28vG-43" value="" style="endArrow=none;html=1;rounded=0;fontFamily=Lucida Console;fontSize=20;fontColor=#FF8000;entryX=0.5;entryY=1;entryDx=0;entryDy=0;strokeColor=#000000;strokeWidth=2;" parent="1" target="bvwN4WITmdQyCTtZIi4v-25" edge="1">
          <mxGeometry width="50" height="50" relative="1" as="geometry">
            <mxPoint x="440" y="560" as="sourcePoint" />
            <mxPoint x="449.5" y="329" as="targetPoint" />
          </mxGeometry>
        </mxCell>
        <mxCell id="vStZy5G3cpGjvrvQ28vG-54" value="" style="endArrow=none;html=1;rounded=0;fontFamily=Lucida Console;fontSize=20;fontColor=#FF8000;entryX=0;entryY=0.5;entryDx=0;entryDy=0;strokeColor=#000000;strokeWidth=2;exitX=1;exitY=0.5;exitDx=0;exitDy=0;" parent="1" source="bvwN4WITmdQyCTtZIi4v-12" target="vStZy5G3cpGjvrvQ28vG-32" edge="1">
          <mxGeometry width="50" height="50" relative="1" as="geometry">
            <mxPoint x="449.99999999999955" y="569.9999999999995" as="sourcePoint" />
            <mxPoint x="449.99999999999955" y="490.00000000000045" as="targetPoint" />
          </mxGeometry>
        </mxCell>
        <mxCell id="vStZy5G3cpGjvrvQ28vG-55" value="" style="endArrow=none;html=1;rounded=0;fontFamily=Lucida Console;fontSize=20;fontColor=#FF8000;strokeColor=#000000;strokeWidth=2;exitX=0.5;exitY=0;exitDx=0;exitDy=0;" parent="1" source="vStZy5G3cpGjvrvQ28vG-32" edge="1">
          <mxGeometry width="50" height="50" relative="1" as="geometry">
            <mxPoint x="559.9999999999995" y="592" as="sourcePoint" />
            <mxPoint x="920" y="320" as="targetPoint" />
          </mxGeometry>
        </mxCell>
        <mxCell id="vStZy5G3cpGjvrvQ28vG-57" value="" style="rhombus;whiteSpace=wrap;html=1;fontFamily=Lucida Console;fontSize=20;strokeWidth=2;fillColor=#fad7ac;strokeColor=#FF8000;fontStyle=1" parent="1" vertex="1">
          <mxGeometry x="595" y="740" width="160" height="80" as="geometry" />
        </mxCell>
        <mxCell id="vStZy5G3cpGjvrvQ28vG-58" value="&lt;font color=&quot;#ff8000&quot;&gt;&lt;span&gt;issued&lt;br&gt;&lt;/span&gt;&lt;/font&gt;" style="text;html=1;strokeColor=none;fillColor=none;align=center;verticalAlign=middle;whiteSpace=wrap;rounded=0;fontFamily=Lucida Console;fontSize=20;fontColor=#6C8EBF;" parent="1" vertex="1">
          <mxGeometry x="605" y="765" width="140" height="30" as="geometry" />
        </mxCell>
        <mxCell id="vStZy5G3cpGjvrvQ28vG-59" value="" style="endArrow=none;html=1;rounded=0;fontFamily=Lucida Console;fontSize=20;fontColor=#FF8000;strokeColor=#000000;strokeWidth=2;exitX=0.5;exitY=0;exitDx=0;exitDy=0;entryX=0.5;entryY=1;entryDx=0;entryDy=0;" parent="1" source="bvwN4WITmdQyCTtZIi4v-141" target="vStZy5G3cpGjvrvQ28vG-32" edge="1">
          <mxGeometry width="50" height="50" relative="1" as="geometry">
            <mxPoint x="929" y="689.9999999999995" as="sourcePoint" />
            <mxPoint x="870" y="650" as="targetPoint" />
          </mxGeometry>
        </mxCell>
        <mxCell id="PfPtNQN49iKJSsILx33a-3" value="" style="endArrow=none;html=1;rounded=0;entryX=0.5;entryY=1;entryDx=0;entryDy=0;exitX=0.5;exitY=0;exitDx=0;exitDy=0;strokeWidth=2;" parent="1" source="bvwN4WITmdQyCTtZIi4v-170" target="bvwN4WITmdQyCTtZIi4v-142" edge="1">
          <mxGeometry width="50" height="50" relative="1" as="geometry">
            <mxPoint x="780" y="710" as="sourcePoint" />
            <mxPoint x="830" y="660" as="targetPoint" />
          </mxGeometry>
        </mxCell>
        <mxCell id="PfPtNQN49iKJSsILx33a-4" value="" style="ellipse;whiteSpace=wrap;html=1;fillColor=#f8cecc;strokeColor=#b85450;" parent="1" vertex="1">
          <mxGeometry x="562.5" y="237" width="235" height="138" as="geometry" />
        </mxCell>
        <mxCell id="PfPtNQN49iKJSsILx33a-5" value="" style="shape=callout;whiteSpace=wrap;html=1;perimeter=calloutPerimeter;" parent="1" vertex="1">
          <mxGeometry x="1250" y="-110" width="310" height="190" as="geometry" />
        </mxCell>
        <mxCell id="PfPtNQN49iKJSsILx33a-6" value="" style="endArrow=classic;startArrow=classic;html=1;rounded=0;strokeWidth=2;entryX=0;entryY=0;entryDx=155;entryDy=190;entryPerimeter=0;strokeColor=#FF3333;" parent="1" source="PfPtNQN49iKJSsILx33a-4" target="PfPtNQN49iKJSsILx33a-5" edge="1">
          <mxGeometry width="50" height="50" relative="1" as="geometry">
            <mxPoint x="780" y="510" as="sourcePoint" />
            <mxPoint x="830" y="460" as="targetPoint" />
          </mxGeometry>
        </mxCell>
        <mxCell id="PfPtNQN49iKJSsILx33a-7" value="&lt;div&gt;removed this relationship because the railline&lt;/div&gt;&lt;div&gt;doesnt represent a company running trains, it represents the maps(lines) of all stations that can be used to create routes. Consider:&lt;/div&gt;&lt;div&gt;&lt;br&gt;&lt;/div&gt;&lt;div&gt;&lt;font color=&quot;#FF3333&quot;&gt;Line 1: Station A, Station B. Station C&lt;br&gt;&lt;/font&gt;&lt;/div&gt;&lt;div&gt;&lt;font color=&quot;#0000FF&quot;&gt;Line 2: Station C, Station D&lt;br&gt;&lt;/font&gt;&lt;/div&gt;&lt;div&gt;&lt;font color=&quot;#FF8000&quot;&gt;Route a: Station A, Station B, Station C, Station D&lt;br&gt;&lt;/font&gt;&lt;/div&gt;" style="text;html=1;strokeColor=none;fillColor=none;align=center;verticalAlign=middle;whiteSpace=wrap;rounded=0;" parent="1" vertex="1">
          <mxGeometry x="1255" y="-102" width="305" height="142" as="geometry" />
        </mxCell>
        <mxCell id="PfPtNQN49iKJSsILx33a-9" value="" style="ellipse;whiteSpace=wrap;html=1;rotation=-25;fillColor=none;strokeColor=#FF6666;strokeWidth=2;" parent="1" vertex="1">
          <mxGeometry x="399" y="65" width="330" height="120" as="geometry" />
        </mxCell>
        <mxCell id="PfPtNQN49iKJSsILx33a-10" value="" style="shape=callout;whiteSpace=wrap;html=1;perimeter=calloutPerimeter;" parent="1" vertex="1">
          <mxGeometry x="1250" y="176" width="310" height="99" as="geometry" />
        </mxCell>
        <mxCell id="PfPtNQN49iKJSsILx33a-11" value="i think these two relationships can be combined because raillines use both station and distance" style="text;html=1;strokeColor=none;fillColor=none;align=center;verticalAlign=middle;whiteSpace=wrap;rounded=0;" parent="1" vertex="1">
          <mxGeometry x="1260" y="176" width="290" height="59" as="geometry" />
        </mxCell>
        <mxCell id="PfPtNQN49iKJSsILx33a-12" value="" style="endArrow=classic;startArrow=classic;html=1;rounded=0;strokeColor=#FF3333;strokeWidth=2;entryX=0.743;entryY=0.978;entryDx=0;entryDy=0;entryPerimeter=0;exitX=0;exitY=0;exitDx=155;exitDy=99;exitPerimeter=0;" parent="1" source="PfPtNQN49iKJSsILx33a-10" target="PfPtNQN49iKJSsILx33a-9" edge="1">
          <mxGeometry width="50" height="50" relative="1" as="geometry">
            <mxPoint x="780" y="510" as="sourcePoint" />
            <mxPoint x="830" y="460" as="targetPoint" />
          </mxGeometry>
        </mxCell>
        <mxCell id="PfPtNQN49iKJSsILx33a-13" value="" style="ellipse;whiteSpace=wrap;html=1;strokeColor=#FF6666;strokeWidth=2;fillColor=none;" parent="1" vertex="1">
          <mxGeometry x="600" y="585.5" width="500" height="389" as="geometry" />
        </mxCell>
        <mxCell id="PfPtNQN49iKJSsILx33a-14" value="" style="shape=callout;whiteSpace=wrap;html=1;perimeter=calloutPerimeter;" parent="1" vertex="1">
          <mxGeometry x="1250" y="620" width="310" height="200" as="geometry" />
        </mxCell>
        <mxCell id="PfPtNQN49iKJSsILx33a-15" value="reordered this part. Reservations are created based on the one train following a specific route on a determined schedule. If the balance reaches zero, we can create an algorithm to generate a ticket pretty easily. If ticket is connected to the follows relationship, then without a ticket being issued, the reservation doesnt have a train, schedule or route.It would basically be a reservation to nowhere until the ticket is issued." style="text;html=1;strokeColor=none;fillColor=none;align=center;verticalAlign=middle;whiteSpace=wrap;rounded=0;" parent="1" vertex="1">
          <mxGeometry x="1260" y="650" width="290" height="110" as="geometry" />
        </mxCell>
        <mxCell id="PfPtNQN49iKJSsILx33a-16" value="" style="ellipse;whiteSpace=wrap;html=1;aspect=fixed;fontColor=#FF8000;strokeColor=#FF6666;strokeWidth=2;fillColor=none;" parent="1" vertex="1">
          <mxGeometry x="1670" y="-64" width="40" height="40" as="geometry" />
        </mxCell>
        <mxCell id="PfPtNQN49iKJSsILx33a-17" value="" style="ellipse;whiteSpace=wrap;html=1;aspect=fixed;fontColor=#FF8000;strokeColor=#FF6666;strokeWidth=2;fillColor=none;" parent="1" vertex="1">
          <mxGeometry x="1800" y="-64" width="40" height="40" as="geometry" />
        </mxCell>
        <mxCell id="PfPtNQN49iKJSsILx33a-18" value="" style="ellipse;whiteSpace=wrap;html=1;aspect=fixed;fontColor=#FF8000;strokeColor=#0000FF;strokeWidth=5;fillColor=#FF0D0D;" parent="1" vertex="1">
          <mxGeometry x="1940" y="-64" width="40" height="40" as="geometry" />
        </mxCell>
        <mxCell id="PfPtNQN49iKJSsILx33a-19" value="" style="ellipse;whiteSpace=wrap;html=1;aspect=fixed;fontColor=#FF8000;strokeColor=#0000FF;strokeWidth=2;fillColor=none;" parent="1" vertex="1">
          <mxGeometry x="2060" y="-64" width="40" height="40" as="geometry" />
        </mxCell>
        <mxCell id="PfPtNQN49iKJSsILx33a-20" value="&lt;font color=&quot;#33001A&quot;&gt;A&lt;/font&gt;" style="text;html=1;strokeColor=none;fillColor=none;align=center;verticalAlign=middle;whiteSpace=wrap;rounded=0;fontColor=#FF8000;" parent="1" vertex="1">
          <mxGeometry x="1665" y="-69" width="50" height="45" as="geometry" />
        </mxCell>
        <mxCell id="PfPtNQN49iKJSsILx33a-22" value="B" style="text;html=1;strokeColor=none;fillColor=none;align=center;verticalAlign=middle;whiteSpace=wrap;rounded=0;fontSize=12;fontColor=#33001A;" parent="1" vertex="1">
          <mxGeometry x="1790" y="-59" width="60" height="30" as="geometry" />
        </mxCell>
        <mxCell id="PfPtNQN49iKJSsILx33a-24" value="C" style="text;html=1;strokeColor=none;fillColor=none;align=center;verticalAlign=middle;whiteSpace=wrap;rounded=0;fontSize=12;fontColor=#000000;" parent="1" vertex="1">
          <mxGeometry x="1945" y="-60" width="30" height="29" as="geometry" />
        </mxCell>
        <mxCell id="PfPtNQN49iKJSsILx33a-25" value="D" style="text;html=1;strokeColor=none;fillColor=none;align=center;verticalAlign=middle;whiteSpace=wrap;rounded=0;fontSize=12;fontColor=#000000;" parent="1" vertex="1">
          <mxGeometry x="2050" y="-59" width="60" height="30" as="geometry" />
        </mxCell>
        <mxCell id="PfPtNQN49iKJSsILx33a-26" value="" style="endArrow=none;html=1;rounded=0;fontSize=12;fontColor=#000000;strokeColor=#FF3333;strokeWidth=2;" parent="1" edge="1">
          <mxGeometry width="50" height="50" relative="1" as="geometry">
            <mxPoint x="1710" y="-46" as="sourcePoint" />
            <mxPoint x="1800" y="-46" as="targetPoint" />
          </mxGeometry>
        </mxCell>
        <mxCell id="PfPtNQN49iKJSsILx33a-27" value="" style="endArrow=none;html=1;rounded=0;fontSize=12;fontColor=#000000;strokeColor=#0000FF;strokeWidth=2;entryX=0.167;entryY=0.633;entryDx=0;entryDy=0;entryPerimeter=0;" parent="1" target="PfPtNQN49iKJSsILx33a-25" edge="1">
          <mxGeometry width="50" height="50" relative="1" as="geometry">
            <mxPoint x="1980" y="-44" as="sourcePoint" />
            <mxPoint x="1320" y="460" as="targetPoint" />
          </mxGeometry>
        </mxCell>
        <mxCell id="PfPtNQN49iKJSsILx33a-28" value="" style="endArrow=none;html=1;rounded=0;fontSize=12;fontColor=#000000;strokeColor=#FF0D0D;strokeWidth=2;exitX=0;exitY=0.5;exitDx=0;exitDy=0;" parent="1" source="PfPtNQN49iKJSsILx33a-18" edge="1">
          <mxGeometry width="50" height="50" relative="1" as="geometry">
            <mxPoint x="1270" y="510" as="sourcePoint" />
            <mxPoint x="1840" y="-44" as="targetPoint" />
          </mxGeometry>
        </mxCell>
        <mxCell id="PfPtNQN49iKJSsILx33a-29" value="" style="endArrow=none;dashed=1;html=1;dashPattern=1 3;strokeWidth=6;rounded=0;fontSize=12;fontColor=#000000;strokeColor=#FF8000;" parent="1" edge="1">
          <mxGeometry width="50" height="50" relative="1" as="geometry">
            <mxPoint x="2080" y="3" as="sourcePoint" />
            <mxPoint x="1690" y="3" as="targetPoint" />
          </mxGeometry>
        </mxCell>
        <mxCell id="PfPtNQN49iKJSsILx33a-30" value="&lt;font color=&quot;#FF8000&quot;&gt;Route&lt;/font&gt;" style="text;html=1;strokeColor=none;fillColor=none;align=center;verticalAlign=middle;whiteSpace=wrap;rounded=0;fontSize=12;fontColor=#000000;" parent="1" vertex="1">
          <mxGeometry x="1850" y="-2" width="60" height="30" as="geometry" />
        </mxCell>
        <mxCell id="PfPtNQN49iKJSsILx33a-31" value="&lt;font color=&quot;#FF0D0D&quot;&gt;Line1&lt;/font&gt;" style="text;html=1;strokeColor=none;fillColor=none;align=center;verticalAlign=middle;whiteSpace=wrap;rounded=0;fontSize=12;fontColor=#FF8000;" parent="1" vertex="1">
          <mxGeometry x="1721" y="-70" width="60" height="30" as="geometry" />
        </mxCell>
        <mxCell id="PfPtNQN49iKJSsILx33a-33" value="&lt;font color=&quot;#FF0D0D&quot;&gt;Line1&lt;/font&gt;" style="text;html=1;strokeColor=none;fillColor=none;align=center;verticalAlign=middle;whiteSpace=wrap;rounded=0;fontSize=12;fontColor=#FF8000;" parent="1" vertex="1">
          <mxGeometry x="1853" y="-67" width="60" height="30" as="geometry" />
        </mxCell>
        <mxCell id="PfPtNQN49iKJSsILx33a-34" value="&lt;font color=&quot;#0000FF&quot;&gt;Line2&lt;/font&gt;" style="text;html=1;strokeColor=none;fillColor=none;align=center;verticalAlign=middle;whiteSpace=wrap;rounded=0;fontSize=12;fontColor=#FF8000;" parent="1" vertex="1">
          <mxGeometry x="1990" y="-67" width="60" height="30" as="geometry" />
        </mxCell>
        <mxCell id="PfPtNQN49iKJSsILx33a-35" value="&lt;font color=&quot;#FF8000&quot;&gt;depart&lt;/font&gt;" style="text;html=1;strokeColor=none;fillColor=none;align=center;verticalAlign=middle;whiteSpace=wrap;rounded=0;fontSize=12;fontColor=#0000FF;" parent="1" vertex="1">
          <mxGeometry x="1660" width="60" height="30" as="geometry" />
        </mxCell>
        <mxCell id="PfPtNQN49iKJSsILx33a-36" value="destination" style="text;html=1;strokeColor=none;fillColor=none;align=center;verticalAlign=middle;whiteSpace=wrap;rounded=0;fontSize=12;fontColor=#FF8000;" parent="1" vertex="1">
          <mxGeometry x="2050" y="-2" width="60" height="30" as="geometry" />
        </mxCell>
        <mxCell id="PfPtNQN49iKJSsILx33a-39" value="" style="endArrow=classic;startArrow=classic;html=1;rounded=0;fontSize=12;fontColor=#FF8000;strokeColor=#FF0D0D;strokeWidth=2;entryX=0;entryY=0;entryDx=155;entryDy=200;entryPerimeter=0;exitX=1;exitY=0.612;exitDx=0;exitDy=0;exitPerimeter=0;" parent="1" source="PfPtNQN49iKJSsILx33a-13" target="PfPtNQN49iKJSsILx33a-14" edge="1">
          <mxGeometry width="50" height="50" relative="1" as="geometry">
            <mxPoint x="1270" y="560" as="sourcePoint" />
            <mxPoint x="1320" y="510" as="targetPoint" />
          </mxGeometry>
        </mxCell>
        <mxCell id="PfPtNQN49iKJSsILx33a-41" value="" style="ellipse;whiteSpace=wrap;html=1;strokeColor=#FF6666;strokeWidth=2;fillColor=none;" parent="1" vertex="1">
          <mxGeometry x="-9" y="-38" width="279" height="235" as="geometry" />
        </mxCell>
        <mxCell id="PfPtNQN49iKJSsILx33a-42" value="" style="shape=callout;whiteSpace=wrap;html=1;perimeter=calloutPerimeter;" parent="1" vertex="1">
          <mxGeometry x="60" y="-220" width="310" height="128" as="geometry" />
        </mxCell>
        <mxCell id="PfPtNQN49iKJSsILx33a-43" value="I dont think this needs to be connected to the DB with relationships because its a test filler. I think we&#39;ll only be referencing it directly using CLOCK(p_date) rather than through relationships." style="text;html=1;strokeColor=none;fillColor=none;align=center;verticalAlign=middle;whiteSpace=wrap;rounded=0;" parent="1" vertex="1">
          <mxGeometry x="70" y="-195" width="290" height="59" as="geometry" />
        </mxCell>
        <mxCell id="PfPtNQN49iKJSsILx33a-44" value="" style="endArrow=classic;startArrow=classic;html=1;rounded=0;fontSize=12;fontColor=#FF8000;strokeColor=#FF0D0D;strokeWidth=2;" parent="1" source="PfPtNQN49iKJSsILx33a-41" edge="1">
          <mxGeometry width="50" height="50" relative="1" as="geometry">
            <mxPoint x="520" y="410" as="sourcePoint" />
            <mxPoint x="210" y="-90" as="targetPoint" />
          </mxGeometry>
        </mxCell>
      </root>
    </mxGraphModel>
  </diagram>
</mxfile>
